<svg width="51" height="49" viewBox="0 0 51 49" fill="none" xmlns="http://www.w3.org/2000/svg">
<path d="M9.56849 3.92389e-06H41.8155C42.9769 -0.00109075 44.1272 0.226865 45.2004 0.670825C46.2737 1.11479 47.2488 1.76603 48.0701 2.5873C48.8914 3.40857 49.5426 4.38373 49.9866 5.45697C50.4305 6.53022 50.6585 7.68048 50.6574 8.84192V39.8406C50.6585 41.0021 50.4305 42.1524 49.9866 43.2256C49.5426 44.2988 48.8914 45.274 48.0701 46.0953C47.2488 46.9165 46.2737 47.5678 45.2004 48.0117C44.1272 48.4557 42.9769 48.6837 41.8155 48.6826H9.56849C8.40704 48.6837 7.25678 48.4557 6.18353 48.0117C5.11029 47.5678 4.13513 46.9165 3.31386 46.0953C2.4926 45.274 1.84135 44.2988 1.39739 43.2256C0.953428 42.1524 0.725472 41.0021 0.726566 39.8406V8.84192C0.725472 7.68048 0.953428 6.53022 1.39739 5.45697C1.84135 4.38373 2.4926 3.40857 3.31386 2.5873C4.13513 1.76603 5.11029 1.11479 6.18353 0.670825C7.25678 0.226865 8.40704 -0.00109075 9.56849 3.92389e-06Z" fill="#EFEFEF"/>
<path d="M21.6052 29.6021H13.8659L12.2847 34.512C12.2671 34.6011 12.2167 34.6804 12.1436 34.7343C12.0704 34.7882 11.9798 34.8128 11.8895 34.8033H7.9782C7.74936 34.8033 7.68694 34.6784 7.74935 34.4288L14.4484 15.2262C14.5108 15.0182 14.5732 14.8309 14.6565 14.5813C14.7402 14.1354 14.782 13.6826 14.7813 13.229C14.775 13.1769 14.7887 13.1243 14.8196 13.0819C14.8505 13.0395 14.8962 13.0102 14.9477 13.0001H20.3361C20.4817 13.0001 20.5857 13.0625 20.6065 13.1666L28.2002 34.4912C28.2626 34.72 28.2002 34.8241 27.9921 34.8241H23.644C23.5705 34.8311 23.4968 34.8121 23.4359 34.7702C23.375 34.7284 23.3309 34.6664 23.3111 34.5952L21.6052 29.6021ZM15.0725 25.462H20.3569C20.2321 25.0251 20.0656 24.505 19.8784 23.9641C19.6911 23.4232 19.5039 22.7991 19.3167 22.1749C19.1294 21.5508 18.9214 20.9058 18.7133 20.2609C18.5053 19.616 18.3181 19.0126 18.1516 18.4093C17.9852 17.806 17.8395 17.2859 17.6939 16.7865H17.6523C17.4653 17.6933 17.2292 18.5892 16.945 19.4703C16.6329 20.4689 16.3208 21.5092 15.9879 22.5494C15.7175 23.6104 15.3846 24.5882 15.0725 25.462Z" fill="#111111"/>
<path d="M40.5371 27.6881H33.942C34.0207 28.3446 34.2408 28.9763 34.587 29.5397C34.9546 30.1004 35.4844 30.5358 36.1057 30.7879C36.9466 31.1476 37.8542 31.3248 38.7687 31.3081C39.4952 31.2947 40.2191 31.2182 40.9323 31.0792C41.5668 30.9961 42.1887 30.8354 42.7839 30.6007C42.888 30.5175 42.9504 30.5591 42.9504 30.7671V33.9502C42.9467 34.0348 42.9328 34.1187 42.9088 34.1999C42.8712 34.2583 42.8215 34.3079 42.7631 34.3455C42.0977 34.6377 41.3991 34.8473 40.6827 34.9697C39.7095 35.1568 38.7192 35.2405 37.7285 35.2193C36.1473 35.2193 34.8158 34.9697 33.734 34.4911C32.716 34.0493 31.8175 33.3719 31.1126 32.5147C30.4539 31.7132 29.9655 30.7859 29.6771 29.7893C29.0675 27.7138 29.0965 25.5028 29.7603 23.4439C30.0921 22.4023 30.6219 21.4345 31.3207 20.5937C32.0087 19.7624 32.8671 19.0884 33.838 18.6173C34.8158 18.1388 35.9809 17.9724 37.3124 17.9724C38.4217 17.9466 39.523 18.1669 40.5371 18.6173C41.3894 18.9868 42.1391 19.558 42.7215 20.2817C43.2745 20.9922 43.6972 21.7952 43.9698 22.6534C44.2344 23.4733 44.3678 24.3299 44.3651 25.1915C44.3651 25.6908 44.3443 26.1277 44.3235 26.523C44.3027 26.9183 44.2611 27.2096 44.2403 27.3968C44.2311 27.4689 44.1969 27.5354 44.1437 27.5849C44.0905 27.6343 44.0215 27.6635 43.949 27.6673C43.8242 27.6673 43.5953 27.6881 43.2625 27.7089C42.8619 27.7544 42.4589 27.7752 42.0558 27.7713C41.5773 27.7713 41.078 27.6881 40.5371 27.6881ZM33.942 24.6506H38.3318C38.8727 24.6506 39.268 24.6506 39.5176 24.6298C39.6886 24.6156 39.8532 24.5583 39.9961 24.4634V24.2553C39.997 23.9936 39.9548 23.7336 39.8713 23.4856C39.6892 22.9163 39.3269 22.4217 38.839 22.0764C38.3511 21.7312 37.7642 21.554 37.1667 21.5715C36.6021 21.5399 36.0404 21.6723 35.5494 21.9529C35.0584 22.2335 34.6591 22.6502 34.3997 23.1527C34.157 23.6199 34.0019 24.1276 33.942 24.6506Z" fill="#111111"/>
</svg>
