<svg width="50" height="49" viewBox="0 0 50 49" fill="none" xmlns="http://www.w3.org/2000/svg">
<path d="M8.84192 0.000125994H41.0889C42.2504 -0.000968677 43.4006 0.226987 44.4739 0.670947C45.5471 1.11491 46.5223 1.76616 47.3435 2.58742C48.1648 3.40869 48.8161 4.38385 49.26 5.45709C49.704 6.53034 49.9319 7.6806 49.9308 8.84204V39.8408C49.9319 41.0022 49.704 42.1525 49.26 43.2257C48.8161 44.299 48.1648 45.2741 47.3435 46.0954C46.5223 46.9167 45.5471 47.5679 44.4739 48.0119C43.4006 48.4558 42.2504 48.6838 41.0889 48.6827H8.84192C7.68048 48.6838 6.53022 48.4558 5.45697 48.0119C4.38373 47.5679 3.40857 46.9167 2.5873 46.0954C1.76603 45.2741 1.11479 44.299 0.670825 43.2257C0.226865 42.1525 -0.00109075 41.0022 3.92389e-06 39.8408V8.84204C-0.00109075 7.6806 0.226865 6.53034 0.670825 5.45709C1.11479 4.38385 1.76603 3.40869 2.5873 2.58742C3.40857 1.76616 4.38373 1.11491 5.45697 0.670947C6.53022 0.226987 7.68048 -0.000968677 8.84192 0.000125994Z" fill="#EFEFEF"/>
<path d="M24.8786 31.4121H17.1393L15.5582 36.3011C15.5405 36.3902 15.4902 36.4695 15.417 36.5234C15.3439 36.5773 15.2532 36.6019 15.1629 36.5924H11.2516C11.0228 36.5924 10.9604 36.4676 11.0228 36.2179L17.7218 16.9321C17.7843 16.7241 17.8467 16.4952 17.9299 16.2456C18.0136 15.7997 18.0554 15.347 18.0547 14.8933C18.0485 14.8412 18.0622 14.7886 18.093 14.7462C18.1239 14.7038 18.1697 14.6746 18.2212 14.6644H23.6095C23.776 14.6644 23.8592 14.7268 23.88 14.8309L31.4736 36.2595C31.536 36.4884 31.4736 36.5924 31.2656 36.5924H26.9174C26.8439 36.5995 26.7702 36.5804 26.7093 36.5386C26.6485 36.4967 26.6043 36.4347 26.5846 36.3635L24.8786 31.4121ZM18.346 27.1887H23.6303C23.5055 26.7519 23.3391 26.2317 23.1518 25.6908C22.9646 25.1499 22.7773 24.5258 22.5901 23.9016C22.4029 23.2775 22.1948 22.6326 21.9868 21.9876C21.7787 21.3427 21.5915 20.7393 21.425 20.136C21.2586 19.5327 21.113 19.0126 20.9674 18.5133H20.9257C20.7388 19.42 20.5026 20.3159 20.2184 21.197C19.9063 22.1957 19.5943 23.2359 19.2614 24.2761C18.9701 25.3371 18.658 26.315 18.346 27.1887Z" fill="#111111"/>
<path d="M36.0078 18.222C35.6663 18.2295 35.3267 18.169 35.0088 18.0439C34.691 17.9189 34.4011 17.7319 34.1562 17.4939C33.6795 16.9727 33.4257 16.2857 33.4488 15.5798C33.4365 15.2359 33.4969 14.8932 33.6259 14.5742C33.755 14.2552 33.9498 13.9669 34.1978 13.7282C34.6978 13.2556 35.3613 12.9947 36.0494 13.0001C36.8608 13.0001 37.4849 13.2497 37.9426 13.7282C38.4035 14.2327 38.6498 14.8969 38.6292 15.5798C38.6418 15.9313 38.5839 16.2818 38.4589 16.6106C38.3338 16.9393 38.1441 17.2397 37.901 17.4939C37.6559 17.7436 37.36 17.9378 37.0334 18.0634C36.7068 18.189 36.3571 18.2431 36.0078 18.222ZM33.6777 36.2803V20.2609C33.6777 20.0528 33.7609 19.9696 33.9481 19.9696H38.0674C38.2547 19.9696 38.3379 20.0736 38.3379 20.2609V36.2803C38.3379 36.5092 38.2547 36.6132 38.0674 36.6132H33.9897C33.946 36.6168 33.902 36.6105 33.8611 36.5947C33.8202 36.579 33.7833 36.5541 33.7533 36.5221C33.7233 36.4901 33.7009 36.4518 33.6878 36.4099C33.6747 36.368 33.6713 36.3237 33.6777 36.2803Z" fill="#111111"/>
</svg>
