<svg width="50" height="50" viewBox="0 0 50 50" fill="none" xmlns="http://www.w3.org/2000/svg">
<path d="M8.84192 0.682865H41.0889C42.2504 0.681771 43.4006 0.909726 44.4739 1.35369C45.5471 1.79765 46.5223 2.4489 47.3435 3.27016C48.1648 4.09143 48.8161 5.06659 49.26 6.13983C49.704 7.21308 49.9319 8.36334 49.9308 9.52478V40.5235C49.9319 41.685 49.704 42.8352 49.26 43.9085C48.8161 44.9817 48.1648 45.9569 47.3435 46.7781C46.5223 47.5994 45.5471 48.2507 44.4739 48.6946C43.4006 49.1386 42.2504 49.3665 41.0889 49.3654H8.84192C7.68048 49.3665 6.53022 49.1386 5.45697 48.6946C4.38373 48.2507 3.40857 47.5994 2.5873 46.7781C1.76603 45.9569 1.11479 44.9817 0.670825 43.9085C0.226865 42.8352 -0.00109075 41.685 3.92389e-06 40.5235V9.52478C-0.00109075 8.36334 0.226865 7.21308 0.670825 6.13983C1.11479 5.06659 1.76603 4.09143 2.5873 3.27016C3.40857 2.4489 4.38373 1.79765 5.45697 1.35369C6.53022 0.909726 7.68048 0.681771 8.84192 0.682865Z" fill="#EFEFEF"/>
<path d="M32.0016 11.7994C32.0016 10.9204 31.0175 10.9204 30.5801 11.0303C31.1924 10.5469 31.9105 10.6641 32.1656 10.8106L38.079 13.7101C38.6424 13.9864 38.9998 14.5612 38.9998 15.1912V34.2657C38.9998 34.9041 38.6329 35.4851 38.058 35.7569L32.4937 38.388C32.1109 38.5528 31.2799 38.9593 30.5801 38.388C31.4549 38.5528 31.9287 37.9302 32.0016 37.509V11.7994Z" fill="#747474"/>
<path d="M30.6512 11.0144C31.1154 10.9227 32.0018 10.9652 32.0018 11.7993V18.365L14.0736 31.9278C13.7602 32.1649 13.3192 32.1255 13.0523 31.8367L11.2045 29.8373C10.9151 29.5241 10.9353 29.0338 11.2496 28.7458L30.5802 11.0302L30.6512 11.0144Z" fill="#111111"/>
<path d="M32.0018 31.0532L14.0736 17.4904C13.7602 17.2533 13.3192 17.2926 13.0523 17.5815L11.2045 19.5809C10.9151 19.8941 10.9353 20.3844 11.2496 20.6724L30.5802 38.3879C31.455 38.5528 31.9289 37.9301 32.0018 37.509V31.0532Z" fill="#5E5E5E"/>
</svg>
