<svg width="1215" height="291" viewBox="0 0 1215 291" fill="none" xmlns="http://www.w3.org/2000/svg">
<path d="M701.074 279.017C707.804 269.365 712.453 259.801 715.021 250.326C717.678 240.763 719.006 231.332 719.006 222.034C719.006 212.647 717.678 203.216 715.021 193.741C712.365 184.266 707.716 174.702 701.074 165.05L713.959 156.283C724.585 165.404 732.333 175.676 737.204 187.1C742.074 198.434 744.509 210.079 744.509 222.034C744.509 233.9 742.074 245.544 737.204 256.968C732.333 268.302 724.585 278.53 713.959 287.651L701.074 279.017Z" fill="#EFEFEF"/>
<path d="M698.132 279.017L685.248 287.651C674.71 278.53 666.962 268.302 662.003 256.968C657.132 245.544 654.697 233.9 654.697 222.034C654.697 210.079 657.132 198.434 662.003 187.1C666.962 175.676 674.71 165.404 685.248 156.283L698.132 165.05C691.491 174.702 686.842 184.266 684.185 193.741C681.529 203.216 680.201 212.647 680.201 222.034C680.201 231.332 681.484 240.763 684.052 250.326C686.709 259.801 691.402 269.365 698.132 279.017Z" fill="#EFEFEF"/>
<path d="M601.439 237.575V213.267H591.609V193.077H601.439V175.942H627.075V193.077H648.46V213.267H627.075V235.981C627.075 238.194 627.385 240.01 628.005 241.427C628.624 242.755 629.466 243.818 630.528 244.615C631.591 245.323 632.831 245.854 634.248 246.208C635.753 246.474 637.347 246.607 639.029 246.607C640.535 246.607 642.04 246.563 643.546 246.474C645.14 246.297 646.778 246.031 648.46 245.677V265.867C645.007 266.487 641.775 266.974 638.764 267.328C635.753 267.683 632.831 267.86 629.997 267.86C625.304 267.86 621.142 267.284 617.511 266.133C613.969 264.982 611.002 263.211 608.612 260.82C606.221 258.34 604.405 255.197 603.166 251.389C602.014 247.581 601.439 242.976 601.439 237.575Z" fill="#EFEFEF"/>
<path d="M509.932 193.077H533.841L534.239 204.899C536.453 200.382 539.597 196.973 543.67 194.671C547.832 192.368 552.57 191.217 557.883 191.217C562.576 191.217 566.827 192.147 570.635 194.007C574.531 195.778 577.807 198.346 580.464 201.711C583.209 205.076 585.334 209.149 586.84 213.931C588.345 218.624 589.098 223.849 589.098 229.605C589.098 235.361 588.345 240.63 586.84 245.412C585.334 250.105 583.209 254.134 580.464 257.499C577.807 260.775 574.531 263.343 570.635 265.203C566.827 266.974 562.621 267.86 558.016 267.86C552.703 267.86 548.054 266.708 544.069 264.406C540.084 262.104 536.896 258.783 534.505 254.444V290.308H509.932V193.077ZM535.169 229.605C535.169 232.527 535.479 235.095 536.099 237.309C536.807 239.523 537.737 241.427 538.888 243.021C540.128 244.526 541.589 245.721 543.272 246.607C545.043 247.404 547.035 247.802 549.249 247.802C551.463 247.802 553.411 247.404 555.094 246.607C556.865 245.81 558.326 244.659 559.477 243.153C560.717 241.559 561.646 239.656 562.266 237.442C562.886 235.139 563.196 232.571 563.196 229.738C563.196 226.904 562.886 224.336 562.266 222.034C561.646 219.731 560.717 217.827 559.477 216.322C558.237 214.728 556.732 213.533 554.961 212.736C553.278 211.85 551.374 211.407 549.249 211.407C547.035 211.407 545.043 211.806 543.272 212.603C541.589 213.4 540.128 214.595 538.888 216.189C537.737 217.783 536.807 219.731 536.099 222.034C535.479 224.247 535.169 226.771 535.169 229.605Z" fill="#EFEFEF"/>
<path d="M387.221 266V193.077H411.13L411.528 206.094C412.414 203.438 413.565 201.179 414.982 199.32C416.487 197.372 418.17 195.822 420.03 194.671C421.889 193.52 423.926 192.678 426.14 192.147C428.353 191.527 430.7 191.217 433.18 191.217C435.925 191.217 438.493 191.571 440.884 192.28C443.275 192.988 445.4 194.007 447.259 195.335C449.208 196.663 450.89 198.302 452.307 200.25C453.724 202.198 454.875 204.456 455.761 207.024C456.646 204.102 457.797 201.666 459.214 199.718C460.631 197.77 462.269 196.176 464.129 194.936C466.077 193.608 468.202 192.678 470.505 192.147C472.807 191.527 475.198 191.217 477.677 191.217C481.397 191.217 484.762 191.837 487.772 193.077C490.783 194.317 493.351 196.132 495.476 198.523C497.69 200.825 499.373 203.703 500.524 207.157C501.675 210.61 502.251 214.551 502.251 218.979V266H476.615V226.815C476.615 224.247 476.438 222.078 476.083 220.307C475.818 218.447 475.331 216.942 474.622 215.791C473.914 214.639 472.984 213.798 471.833 213.267C470.77 212.736 469.398 212.47 467.715 212.47C466.121 212.47 464.704 212.736 463.465 213.267C462.225 213.798 461.162 214.684 460.277 215.923C459.391 217.075 458.727 218.536 458.284 220.307C457.842 222.078 457.62 224.247 457.62 226.815V266H431.851V226.815C431.851 224.247 431.674 222.078 431.32 220.307C431.054 218.447 430.567 216.942 429.859 215.791C429.239 214.639 428.353 213.798 427.202 213.267C426.051 212.736 424.679 212.47 423.085 212.47C421.402 212.47 419.941 212.736 418.701 213.267C417.461 213.798 416.399 214.684 415.513 215.923C414.716 217.075 414.052 218.536 413.521 220.307C413.078 222.078 412.857 224.247 412.857 226.815V266H387.221Z" fill="#EFEFEF"/>
<path d="M301.316 229.472C301.316 223.805 302.29 218.624 304.239 213.931C306.187 209.149 308.888 205.12 312.341 201.844C315.883 198.479 320.134 195.866 325.093 194.007C330.052 192.147 335.542 191.217 341.564 191.217C347.674 191.217 353.12 192.147 357.902 194.007C362.772 195.778 366.89 198.39 370.255 201.844C373.62 205.209 376.188 209.282 377.959 214.064C379.73 218.757 380.615 223.982 380.615 229.738V235.184H327.749C328.104 237.309 328.635 239.213 329.343 240.895C330.14 242.578 331.114 244.039 332.266 245.279C333.505 246.43 334.878 247.315 336.383 247.935C337.889 248.555 339.615 248.865 341.564 248.865C342.892 248.865 344.132 248.688 345.283 248.334C346.523 247.98 347.629 247.493 348.604 246.873C349.578 246.253 350.463 245.5 351.26 244.615C352.057 243.64 352.766 242.534 353.385 241.294H380.35C378.047 249.529 373.487 256.038 366.668 260.82C359.938 265.513 351.57 267.86 341.564 267.86C335.542 267.86 330.052 266.974 325.093 265.203C320.134 263.343 315.883 260.731 312.341 257.366C308.888 254.001 306.187 249.972 304.239 245.279C302.29 240.585 301.316 235.317 301.316 229.472ZM327.749 223.628H355.112C354.847 221.502 354.315 219.643 353.518 218.049C352.81 216.366 351.88 214.949 350.729 213.798C349.666 212.647 348.338 211.806 346.744 211.274C345.239 210.655 343.512 210.345 341.564 210.345C339.704 210.345 337.977 210.655 336.383 211.274C334.878 211.806 333.55 212.647 332.398 213.798C331.247 214.949 330.273 216.366 329.476 218.049C328.768 219.643 328.192 221.502 327.749 223.628Z" fill="#EFEFEF"/>
<path d="M251.335 237.575V213.267H241.506V193.077H251.335V175.942H276.971V193.077H298.357V213.267H276.971V235.981C276.971 238.194 277.281 240.01 277.901 241.427C278.521 242.755 279.362 243.818 280.425 244.615C281.487 245.323 282.727 245.854 284.144 246.208C285.649 246.474 287.243 246.607 288.926 246.607C290.431 246.607 291.937 246.563 293.442 246.474C295.036 246.297 296.674 246.031 298.357 245.677V265.867C294.903 266.487 291.671 266.974 288.66 267.328C285.649 267.683 282.727 267.86 279.893 267.86C275.2 267.86 271.038 267.284 267.408 266.133C263.865 264.982 260.899 263.211 258.508 260.82C256.117 258.34 254.302 255.197 253.062 251.389C251.911 247.581 251.335 242.976 251.335 237.575Z" fill="#EFEFEF"/>
<path d="M190.24 237.575V213.267H180.41V193.077H190.24V175.942H215.876V193.077H237.261V213.267H215.876V235.981C215.876 238.194 216.185 240.01 216.805 241.427C217.425 242.755 218.266 243.818 219.329 244.615C220.392 245.323 221.631 245.854 223.048 246.208C224.554 246.474 226.148 246.607 227.83 246.607C229.336 246.607 230.841 246.563 232.346 246.474C233.94 246.297 235.579 246.031 237.261 245.677V265.867C233.807 266.487 230.575 266.974 227.564 267.328C224.554 267.683 221.631 267.86 218.798 267.86C214.104 267.86 209.942 267.284 206.312 266.133C202.77 264.982 199.803 263.211 197.412 260.82C195.021 258.34 193.206 255.197 191.966 251.389C190.815 247.581 190.24 242.976 190.24 237.575Z" fill="#EFEFEF"/>
<path d="M101.805 247.802C101.805 241.338 104.019 236.379 108.446 232.926C112.874 229.472 119.294 226.948 127.706 225.354L151.616 220.705V220.307C151.616 216.499 150.597 213.71 148.561 211.939C146.612 210.168 143.867 209.282 140.325 209.282C136.34 209.282 133.462 210.3 131.691 212.337C129.92 214.285 128.902 217.119 128.636 220.838H103C103.443 215.614 104.638 211.142 106.587 207.422C108.623 203.615 111.28 200.515 114.556 198.124C117.921 195.733 121.773 194.007 126.112 192.944C130.451 191.793 135.145 191.217 140.192 191.217C151.704 191.217 160.604 193.83 166.891 199.054C173.178 204.19 176.322 211.939 176.322 222.299V266H152.413L152.014 256.171C150.863 257.853 149.446 259.403 147.764 260.82C146.081 262.237 144.133 263.476 141.919 264.539C139.705 265.602 137.27 266.399 134.613 266.93C132.045 267.55 129.212 267.86 126.112 267.86C123.19 267.86 120.224 267.505 117.213 266.797C114.291 266.089 111.678 264.982 109.376 263.476C107.074 261.882 105.214 259.801 103.797 257.233C102.469 254.665 101.805 251.522 101.805 247.802ZM127.706 243.286C127.706 245.5 128.459 247.183 129.964 248.334C131.47 249.396 133.684 249.928 136.606 249.928C138.908 249.928 140.945 249.574 142.716 248.865C144.576 248.157 146.17 247.138 147.498 245.81C148.826 244.482 149.845 242.844 150.553 240.895C151.261 238.947 151.616 236.689 151.616 234.121V232.394L136.473 235.582C133.551 236.202 131.337 237.132 129.832 238.372C128.415 239.523 127.706 241.161 127.706 243.286Z" fill="#EFEFEF"/>
<path d="M1191.21 98.0001V74.8878H1214.99V98.0001H1191.21ZM1191.21 48.1892V25.0769H1214.99V48.1892H1191.21Z" fill="#EFEFEF"/>
<path d="M1112.54 72.7625H1137.77C1137.95 76.2161 1139.01 78.7841 1140.96 80.4666C1142.91 82.1491 1145.65 82.9904 1149.2 82.9904C1150.61 82.9904 1151.85 82.8576 1152.92 82.5919C1154.07 82.3262 1155.04 81.972 1155.84 81.5293C1156.72 80.9979 1157.34 80.3781 1157.7 79.6697C1158.14 78.9612 1158.36 78.12 1158.36 77.1459C1158.36 75.9062 1157.96 74.8878 1157.17 74.0908C1156.37 73.2939 1155.26 72.6297 1153.84 72.0984C1152.43 71.5671 1150.7 71.1686 1148.66 70.9029C1146.72 70.5487 1144.55 70.1502 1142.16 69.7075C1139.23 69.3533 1136.09 68.7777 1132.73 67.9807C1129.45 67.1837 1126.39 65.9883 1123.56 64.3943C1120.73 62.8004 1118.38 60.6751 1116.52 58.0185C1114.66 55.2734 1113.73 51.7313 1113.73 47.3922C1113.73 43.7615 1114.44 40.4408 1115.86 37.43C1117.27 34.4192 1119.4 31.8955 1122.23 29.8587C1125.07 27.7335 1128.61 26.0953 1132.86 24.9441C1137.11 23.7929 1142.02 23.2173 1147.6 23.2173C1153.27 23.2173 1158.23 23.7929 1162.48 24.9441C1166.73 26.0953 1170.32 27.822 1173.24 30.1244C1176.16 32.4268 1178.42 35.2162 1180.01 38.4926C1181.69 41.7691 1182.71 45.5769 1183.07 49.9159H1157.7C1157.43 46.8166 1156.41 44.4257 1154.64 42.7432C1152.87 41.0607 1150.44 40.2194 1147.34 40.2194C1145.92 40.2194 1144.72 40.3965 1143.75 40.7507C1142.78 41.0164 1141.98 41.4149 1141.36 41.9462C1140.74 42.3889 1140.25 42.9645 1139.9 43.673C1139.63 44.2928 1139.5 44.957 1139.5 45.6654C1139.5 46.9937 1139.9 48.0563 1140.69 48.8533C1141.49 49.6503 1142.55 50.3144 1143.88 50.8457C1145.3 51.3771 1146.98 51.8198 1148.93 52.174C1150.88 52.5282 1152.96 52.9267 1155.17 53.3695C1158.27 53.7237 1161.5 54.2993 1164.87 55.0963C1168.32 55.8047 1171.47 56.9559 1174.3 58.5498C1177.22 60.1438 1179.61 62.3576 1181.47 65.1913C1183.42 67.9364 1184.4 71.5228 1184.4 75.9504C1184.4 79.9353 1183.6 83.4331 1182 86.4439C1180.41 89.3662 1178.11 91.8457 1175.1 93.8824C1172.09 95.9191 1168.41 97.4245 1164.07 98.3985C1159.73 99.3726 1154.82 99.8597 1149.33 99.8597C1143.4 99.8597 1138.17 99.2398 1133.65 98.0001C1129.14 96.8489 1125.33 95.1664 1122.23 92.9526C1119.22 90.6502 1116.87 87.8165 1115.19 84.4515C1113.6 80.9979 1112.71 77.1016 1112.54 72.7625Z" fill="#EFEFEF"/>
<path d="M1035.74 72.7625H1060.98C1061.16 76.2161 1062.22 78.7841 1064.17 80.4666C1066.12 82.1491 1068.86 82.9904 1072.4 82.9904C1073.82 82.9904 1075.06 82.8576 1076.12 82.5919C1077.28 82.3262 1078.25 81.972 1079.05 81.5293C1079.93 80.9979 1080.55 80.3781 1080.91 79.6697C1081.35 78.9612 1081.57 78.12 1081.57 77.1459C1081.57 75.9062 1081.17 74.8878 1080.37 74.0908C1079.58 73.2939 1078.47 72.6297 1077.05 72.0984C1075.64 71.5671 1073.91 71.1686 1071.87 70.9029C1069.93 70.5487 1067.76 70.1502 1065.36 69.7075C1062.44 69.3533 1059.3 68.7777 1055.93 67.9807C1052.66 67.1837 1049.6 65.9883 1046.77 64.3943C1043.94 62.8004 1041.59 60.6751 1039.73 58.0185C1037.87 55.2734 1036.94 51.7313 1036.94 47.3922C1036.94 43.7615 1037.65 40.4408 1039.06 37.43C1040.48 34.4192 1042.61 31.8955 1045.44 29.8587C1048.27 27.7335 1051.82 26.0953 1056.07 24.9441C1060.32 23.7929 1065.23 23.2173 1070.81 23.2173C1076.48 23.2173 1081.44 23.7929 1085.69 24.9441C1089.94 26.0953 1093.52 27.822 1096.45 30.1244C1099.37 32.4268 1101.63 35.2162 1103.22 38.4926C1104.9 41.7691 1105.92 45.5769 1106.28 49.9159H1080.91C1080.64 46.8166 1079.62 44.4257 1077.85 42.7432C1076.08 41.0607 1073.64 40.2194 1070.55 40.2194C1069.13 40.2194 1067.93 40.3965 1066.96 40.7507C1065.98 41.0164 1065.19 41.4149 1064.57 41.9462C1063.95 42.3889 1063.46 42.9645 1063.11 43.673C1062.84 44.2928 1062.71 44.957 1062.71 45.6654C1062.71 46.9937 1063.11 48.0563 1063.9 48.8533C1064.7 49.6503 1065.76 50.3144 1067.09 50.8457C1068.51 51.3771 1070.19 51.8198 1072.14 52.174C1074.09 52.5282 1076.17 52.9267 1078.38 53.3695C1081.48 53.7237 1084.71 54.2993 1088.08 55.0963C1091.53 55.8047 1094.68 56.9559 1097.51 58.5498C1100.43 60.1438 1102.82 62.3576 1104.68 65.1913C1106.63 67.9364 1107.6 71.5228 1107.6 75.9504C1107.6 79.9353 1106.81 83.4331 1105.21 86.4439C1103.62 89.3662 1101.32 91.8457 1098.31 93.8824C1095.3 95.9191 1091.62 97.4245 1087.28 98.3985C1082.94 99.3726 1078.03 99.8597 1072.54 99.8597C1066.6 99.8597 1061.38 99.2398 1056.86 98.0001C1052.35 96.8489 1048.54 95.1664 1045.44 92.9526C1042.43 90.6502 1040.08 87.8165 1038.4 84.4515C1036.81 80.9979 1035.92 77.1016 1035.74 72.7625Z" fill="#EFEFEF"/>
<path d="M952.23 61.4721C952.23 55.8047 953.205 50.6244 955.153 45.9311C957.101 41.1492 959.802 37.1201 963.255 33.8436C966.797 30.4786 971.048 27.8663 976.007 26.0067C980.966 24.1471 986.456 23.2173 992.478 23.2173C998.588 23.2173 1004.03 24.1471 1008.82 26.0067C1013.69 27.7777 1017.8 30.3901 1021.17 33.8436C1024.53 37.2086 1027.1 41.282 1028.87 46.0639C1030.64 50.7572 1031.53 55.9818 1031.53 61.7377V67.1837H978.664C979.018 69.309 979.549 71.2129 980.257 72.8954C981.054 74.5779 982.029 76.039 983.18 77.2787C984.419 78.4299 985.792 79.3154 987.297 79.9353C988.803 80.5552 990.53 80.8651 992.478 80.8651C993.806 80.8651 995.046 80.688 996.197 80.3338C997.437 79.9796 998.544 79.4925 999.518 78.8727C1000.49 78.2528 1001.38 77.5001 1002.17 76.6146C1002.97 75.6405 1003.68 74.5336 1004.3 73.2939H1031.26C1028.96 81.5293 1024.4 88.0379 1017.58 92.8197C1010.85 97.513 1002.48 99.8597 992.478 99.8597C986.456 99.8597 980.966 98.9741 976.007 97.2031C971.048 95.3435 966.797 92.7312 963.255 89.3662C959.802 86.0012 957.101 81.972 955.153 77.2787C953.205 72.5854 952.23 67.3165 952.23 61.4721ZM978.664 55.6276H1006.03C1005.76 53.5023 1005.23 51.6427 1004.43 50.0488C1003.72 48.3663 1002.79 46.9494 1001.64 45.7982C1000.58 44.6471 999.252 43.8058 997.658 43.2745C996.153 42.6546 994.426 42.3447 992.478 42.3447C990.618 42.3447 988.891 42.6546 987.297 43.2745C985.792 43.8058 984.464 44.6471 983.312 45.7982C982.161 46.9494 981.187 48.3663 980.39 50.0488C979.682 51.6427 979.106 53.5023 978.664 55.6276Z" fill="#EFEFEF"/>
<path d="M867.656 61.4721C867.656 55.7161 868.63 50.4915 870.578 45.7982C872.527 41.1049 875.228 37.1201 878.681 33.8436C882.223 30.4786 886.474 27.8663 891.433 26.0067C896.392 24.1471 901.926 23.2173 908.036 23.2173C913.527 23.2173 918.53 23.97 923.046 25.4754C927.562 26.9808 931.503 29.0618 934.868 31.7183C938.321 34.3749 941.155 37.6514 943.369 41.5477C945.583 45.3555 947 49.6503 947.619 54.4321H921.452C921.009 52.6611 920.389 51.1114 919.592 49.7831C918.795 48.3663 917.821 47.2151 916.67 46.3295C915.608 45.3555 914.324 44.647 912.818 44.2043C911.401 43.673 909.807 43.4073 908.036 43.4073C905.734 43.4073 903.697 43.8058 901.926 44.6028C900.155 45.3997 898.65 46.5952 897.41 48.1892C896.17 49.7831 895.24 51.687 894.621 53.9008C894.001 56.1146 893.691 58.6384 893.691 61.4721C893.691 64.3943 894.001 67.0066 894.621 69.309C895.24 71.5228 896.17 73.4267 897.41 75.0206C898.65 76.526 900.155 77.7215 901.926 78.607C903.697 79.404 905.734 79.8025 908.036 79.8025C909.807 79.8025 911.446 79.5368 912.951 79.0055C914.456 78.4742 915.785 77.7215 916.936 76.7474C918.087 75.7733 919.017 74.5779 919.725 73.161C920.522 71.7442 921.142 70.106 921.585 68.2463H947.752C947.132 73.0282 945.716 77.3673 943.502 81.2636C941.288 85.1599 938.454 88.4806 935.001 91.2258C931.547 93.9709 927.518 96.0962 922.913 97.6016C918.397 99.107 913.438 99.8597 908.036 99.8597C901.926 99.8597 896.392 98.9741 891.433 97.2031C886.474 95.3435 882.223 92.7312 878.681 89.3662C875.228 86.0012 872.527 81.972 870.578 77.2787C868.63 72.4969 867.656 67.228 867.656 61.4721Z" fill="#EFEFEF"/>
<path d="M783.082 61.4721C783.082 55.7161 784.056 50.4915 786.004 45.7982C787.952 41.1049 790.653 37.1201 794.107 33.8436C797.649 30.4786 801.9 27.8663 806.858 26.0067C811.817 24.1471 817.352 23.2173 823.462 23.2173C828.952 23.2173 833.956 23.97 838.472 25.4754C842.988 26.9808 846.929 29.0618 850.294 31.7183C853.747 34.3749 856.581 37.6514 858.795 41.5477C861.008 45.3555 862.425 49.6503 863.045 54.4321H836.878C836.435 52.6611 835.815 51.1114 835.018 49.7831C834.221 48.3663 833.247 47.2151 832.096 46.3295C831.033 45.3555 829.749 44.647 828.244 44.2043C826.827 43.673 825.233 43.4073 823.462 43.4073C821.16 43.4073 819.123 43.8058 817.352 44.6028C815.581 45.3997 814.075 46.5952 812.836 48.1892C811.596 49.7831 810.666 51.687 810.046 53.9008C809.427 56.1146 809.117 58.6384 809.117 61.4721C809.117 64.3943 809.427 67.0066 810.046 69.309C810.666 71.5228 811.596 73.4267 812.836 75.0206C814.075 76.526 815.581 77.7215 817.352 78.607C819.123 79.404 821.16 79.8025 823.462 79.8025C825.233 79.8025 826.871 79.5368 828.377 79.0055C829.882 78.4742 831.21 77.7215 832.362 76.7474C833.513 75.7733 834.443 74.5779 835.151 73.161C835.948 71.7442 836.568 70.106 837.011 68.2463H863.178C862.558 73.0282 861.141 77.3673 858.927 81.2636C856.714 85.1599 853.88 88.4806 850.426 91.2258C846.973 93.9709 842.944 96.0962 838.339 97.6016C833.823 99.107 828.864 99.8597 823.462 99.8597C817.352 99.8597 811.817 98.9741 806.858 97.2031C801.9 95.3435 797.649 92.7312 794.107 89.3662C790.653 86.0012 787.952 81.972 786.004 77.2787C784.056 72.4969 783.082 67.228 783.082 61.4721Z" fill="#EFEFEF"/>
<path d="M705.018 72.2312V25.0769H730.654V64.2615C730.654 66.8295 730.786 69.0433 731.052 70.9029C731.406 72.674 731.938 74.1794 732.646 75.4191C733.443 76.5703 734.417 77.4116 735.568 77.9429C736.808 78.4742 738.313 78.7399 740.084 78.7399C741.767 78.7399 743.272 78.4742 744.601 77.9429C745.929 77.323 747.036 76.4375 747.921 75.2863C748.895 74.1351 749.604 72.674 750.047 70.9029C750.578 69.0433 750.844 66.8295 750.844 64.2615V25.0769H776.48V98.0001H752.57L752.172 84.85C751.286 87.5951 750.091 89.9418 748.586 91.8899C747.08 93.7495 745.353 95.2992 743.405 96.539C741.546 97.6901 739.465 98.5314 737.162 99.0627C734.948 99.594 732.557 99.8597 729.989 99.8597C726.182 99.8597 722.728 99.2398 719.629 98.0001C716.618 96.7603 714.006 94.9893 711.792 92.6869C709.667 90.296 707.984 87.3737 706.744 83.9202C705.593 80.4666 705.018 76.5703 705.018 72.2312Z" fill="#EFEFEF"/>
<path d="M627.398 72.7625H652.636C652.813 76.2161 653.876 78.7841 655.824 80.4666C657.772 82.1491 660.517 82.9904 664.059 82.9904C665.476 82.9904 666.716 82.8576 667.779 82.5919C668.93 82.3262 669.904 81.972 670.701 81.5293C671.586 80.9979 672.206 80.3781 672.56 79.6697C673.003 78.9612 673.224 78.12 673.224 77.1459C673.224 75.9062 672.826 74.8878 672.029 74.0908C671.232 73.2939 670.125 72.6297 668.708 72.0984C667.291 71.5671 665.565 71.1686 663.528 70.9029C661.58 70.5487 659.41 70.1502 657.019 69.7075C654.097 69.3533 650.954 68.7777 647.589 67.9807C644.312 67.1837 641.257 65.9883 638.423 64.3943C635.59 62.8004 633.243 60.6751 631.383 58.0185C629.524 55.2734 628.594 51.7313 628.594 47.3922C628.594 43.7615 629.302 40.4408 630.719 37.43C632.136 34.4192 634.261 31.8955 637.095 29.8587C639.929 27.7335 643.471 26.0953 647.721 24.9441C651.972 23.7929 656.887 23.2173 662.465 23.2173C668.133 23.2173 673.092 23.7929 677.342 24.9441C681.593 26.0953 685.179 27.822 688.101 30.1244C691.024 32.4268 693.282 35.2162 694.876 38.4926C696.558 41.7691 697.577 45.5769 697.931 49.9159H672.56C672.295 46.8166 671.276 44.4257 669.505 42.7432C667.734 41.0607 665.299 40.2194 662.2 40.2194C660.783 40.2194 659.587 40.3965 658.613 40.7507C657.639 41.0164 656.842 41.4149 656.222 41.9462C655.602 42.3889 655.115 42.9645 654.761 43.673C654.496 44.2928 654.363 44.957 654.363 45.6654C654.363 46.9937 654.761 48.0563 655.558 48.8533C656.355 49.6503 657.418 50.3144 658.746 50.8457C660.163 51.3771 661.845 51.8198 663.794 52.174C665.742 52.5282 667.823 52.9267 670.037 53.3695C673.136 53.7237 676.368 54.2993 679.733 55.0963C683.187 55.8047 686.33 56.9559 689.164 58.5498C692.086 60.1438 694.477 62.3576 696.337 65.1913C698.285 67.9364 699.259 71.5228 699.259 75.9504C699.259 79.9353 698.462 83.4331 696.868 86.4439C695.274 89.3662 692.972 91.8457 689.961 93.8824C686.95 95.9191 683.275 97.4245 678.936 98.3985C674.597 99.3726 669.682 99.8597 664.192 99.8597C658.259 99.8597 653.034 99.2398 648.518 98.0001C644.002 96.8489 640.194 95.1664 637.095 92.9526C634.084 90.6502 631.738 87.8165 630.055 84.4515C628.461 80.9979 627.576 77.1016 627.398 72.7625Z" fill="#EFEFEF"/>
<path d="M552.275 69.5746V45.2669H542.445V25.0768H552.275V7.94189H577.911V25.0768H599.296V45.2669H577.911V67.9806C577.911 70.1945 578.221 72.0098 578.841 73.4266C579.46 74.7549 580.302 75.8176 581.364 76.6145C582.427 77.323 583.667 77.8543 585.083 78.2085C586.589 78.4741 588.183 78.607 589.865 78.607C591.371 78.607 592.876 78.5627 594.382 78.4741C595.975 78.297 597.614 78.0314 599.296 77.6772V97.8672C595.843 98.4871 592.61 98.9741 589.6 99.3283C586.589 99.6825 583.667 99.8596 580.833 99.8596C576.14 99.8596 571.978 99.284 568.347 98.1328C564.805 96.9817 561.838 95.2106 559.447 92.8197C557.057 90.3402 555.241 87.1966 554.001 83.3888C552.85 79.5811 552.275 74.9763 552.275 69.5746Z" fill="#EFEFEF"/>
<path d="M459.051 61.4721C459.051 55.8047 460.025 50.6244 461.973 45.9311C463.921 41.1492 466.622 37.1201 470.076 33.8436C473.618 30.4786 477.868 27.8663 482.827 26.0067C487.786 24.1471 493.321 23.2173 499.431 23.2173C505.541 23.2173 511.076 24.1471 516.034 26.0067C520.993 27.8663 525.2 30.4786 528.653 33.8436C532.195 37.1201 534.896 41.1492 536.756 45.9311C538.704 50.6244 539.678 55.849 539.678 61.6049C539.678 67.3608 538.704 72.5854 536.756 77.2787C534.896 81.972 532.195 86.0012 528.653 89.3662C525.2 92.7312 520.993 95.3435 516.034 97.2031C511.076 98.9741 505.541 99.8597 499.431 99.8597C493.321 99.8597 487.786 98.9741 482.827 97.2031C477.868 95.3435 473.618 92.7312 470.076 89.3662C466.622 86.0012 463.921 81.972 461.973 77.2787C460.025 72.5854 459.051 67.3165 459.051 61.4721ZM485.085 61.4721C485.085 64.3943 485.395 67.0066 486.015 69.309C486.635 71.5228 487.52 73.4267 488.672 75.0206C489.911 76.526 491.417 77.7215 493.188 78.607C495.047 79.404 497.128 79.8025 499.431 79.8025C501.733 79.8025 503.77 79.404 505.541 78.607C507.312 77.7215 508.817 76.526 510.057 75.0206C511.297 73.4267 512.227 71.5228 512.847 69.309C513.466 67.0066 513.776 64.3943 513.776 61.4721C513.776 58.7269 513.466 56.2475 512.847 54.0336C512.227 51.7313 511.297 49.7831 510.057 48.1892C508.817 46.5952 507.312 45.3997 505.541 44.6028C503.77 43.8058 501.733 43.4073 499.431 43.4073C497.128 43.4073 495.047 43.8058 493.188 44.6028C491.417 45.3997 489.911 46.5952 488.672 48.1892C487.52 49.7831 486.635 51.7313 486.015 54.0336C485.395 56.2475 485.085 58.7269 485.085 61.4721Z" fill="#EFEFEF"/>
<path d="M381.254 98.0001V25.0769H405.163L405.694 38.227C406.58 35.4818 407.731 33.1795 409.148 31.3199C410.653 29.4603 412.336 27.9549 414.196 26.8037C416.144 25.5639 418.225 24.6784 420.439 24.1471C422.741 23.5272 425.176 23.2173 427.744 23.2173C431.552 23.2173 434.961 23.8372 437.972 25.0769C441.071 26.3166 443.728 28.132 445.942 30.5229C448.156 32.8253 449.838 35.7032 450.989 39.1568C452.229 42.6103 452.849 46.5509 452.849 50.9786V98.0001H427.08V58.8155C427.08 56.2475 426.903 54.0779 426.549 52.3069C426.283 50.4473 425.752 48.9419 424.955 47.7907C424.246 46.6395 423.272 45.7982 422.032 45.2669C420.881 44.7356 419.42 44.4699 417.649 44.4699C416.055 44.4699 414.55 44.7356 413.133 45.2669C411.805 45.7982 410.653 46.6838 409.679 47.9235C408.794 49.0747 408.085 50.5358 407.554 52.3069C407.111 54.0779 406.89 56.2475 406.89 58.8155V98.0001H381.254Z" fill="#EFEFEF"/>
<path d="M270.963 61.4721C270.963 55.8047 271.937 50.6244 273.885 45.9311C275.833 41.1492 278.534 37.1201 281.988 33.8436C285.53 30.4786 289.78 27.8663 294.739 26.0067C299.698 24.1471 305.189 23.2173 311.21 23.2173C317.32 23.2173 322.766 24.1471 327.548 26.0067C332.418 27.7777 336.536 30.3901 339.901 33.8436C343.266 37.2086 345.834 41.282 347.605 46.0639C349.376 50.7572 350.262 55.9818 350.262 61.7377V67.1837H297.396C297.75 69.309 298.281 71.2129 298.99 72.8954C299.787 74.5779 300.761 76.039 301.912 77.2787C303.152 78.4299 304.524 79.3154 306.03 79.9353C307.535 80.5552 309.262 80.8651 311.21 80.8651C312.538 80.8651 313.778 80.688 314.929 80.3338C316.169 79.9796 317.276 79.4925 318.25 78.8727C319.224 78.2528 320.11 77.5001 320.907 76.6146C321.704 75.6405 322.412 74.5336 323.032 73.2939H349.996C347.694 81.5293 343.133 88.0379 336.315 92.8197C329.585 97.513 321.217 99.8597 311.21 99.8597C305.189 99.8597 299.698 98.9741 294.739 97.2031C289.78 95.3435 285.53 92.7312 281.988 89.3662C278.534 86.0012 275.833 81.972 273.885 77.2787C271.937 72.5854 270.963 67.3165 270.963 61.4721ZM297.396 55.6276H324.759C324.493 53.5023 323.962 51.6427 323.165 50.0488C322.456 48.3663 321.526 46.9494 320.375 45.7982C319.313 44.6471 317.984 43.8058 316.39 43.2745C314.885 42.6546 313.158 42.3447 311.21 42.3447C309.351 42.3447 307.624 42.6546 306.03 43.2745C304.524 43.8058 303.196 44.6471 302.045 45.7982C300.894 46.9494 299.92 48.3663 299.123 50.0488C298.414 51.6427 297.839 53.5023 297.396 55.6276Z" fill="#EFEFEF"/>
<path d="M238.695 98V0.370605H264.331V98H238.695Z" fill="#EFEFEF"/>
<path d="M205.102 98V25.0768H230.738V98H205.102ZM204.969 19.8965V0.503418H230.738V19.8965H204.969Z" fill="#EFEFEF"/>
<path d="M125.842 98V0.370605H151.478V34.9062C152.54 32.7809 153.78 31.0098 155.197 29.593C156.614 28.1762 158.208 26.9807 159.979 26.0066C161.75 25.0325 163.654 24.3241 165.691 23.8814C167.816 23.4386 170.03 23.2172 172.332 23.2172C176.14 23.2172 179.549 23.8371 182.56 25.0768C185.659 26.3166 188.271 28.1319 190.397 30.5228C192.611 32.8252 194.293 35.7031 195.444 39.1567C196.684 42.6103 197.304 46.5508 197.304 50.9785V98H171.668V58.8154C171.668 56.2474 171.491 54.0778 171.137 52.3068C170.871 50.4472 170.34 48.9418 169.543 47.7906C168.834 46.6394 167.86 45.7982 166.62 45.2668C165.469 44.7355 164.008 44.4699 162.237 44.4699C160.554 44.4699 159.049 44.7355 157.721 45.2668C156.392 45.7982 155.241 46.6837 154.267 47.9234C153.382 49.0746 152.673 50.5357 152.142 52.3068C151.699 54.0778 151.478 56.2474 151.478 58.8154V98H125.842Z" fill="#EFEFEF"/>
<path d="M20.5963 98.0001L0.273438 25.0769H27.2377L37.1999 74.2237L48.0919 25.0769H74.6577L85.4169 74.2237L95.2462 25.0769H122.343L102.153 98.0001H72.7981L61.3748 53.5023L50.0844 98.0001H20.5963Z" fill="#EFEFEF"/>
</svg>
