<svg width="51" height="50" viewBox="0 0 51 50" fill="none" xmlns="http://www.w3.org/2000/svg">
<path d="M9.7052 0.365727H41.9522C43.1136 0.364632 44.2639 0.592588 45.3372 1.03655C46.4104 1.48051 47.3856 2.13176 48.2068 2.95302C49.0281 3.77429 49.6793 4.74945 50.1233 5.82269C50.5673 6.89594 50.7952 8.0462 50.7941 9.20765V40.2064C50.7952 41.3678 50.5673 42.5181 50.1233 43.5913C49.6793 44.6646 49.0281 45.6397 48.2068 46.461C47.3856 47.2823 46.4104 47.9335 45.3372 48.3775C44.2639 48.8214 43.1136 49.0494 41.9522 49.0483H9.7052C8.54376 49.0494 7.3935 48.8214 6.32025 48.3775C5.24701 47.9335 4.27185 47.2823 3.45058 46.461C2.62932 45.6397 1.97807 44.6646 1.53411 43.5913C1.09015 42.5181 0.862191 41.3678 0.863285 40.2064V9.20765C0.862191 8.0462 1.09015 6.89594 1.53411 5.82269C1.97807 4.74945 2.62932 3.77429 3.45058 2.95302C4.27185 2.13176 5.24701 1.48051 6.32025 1.03655C7.3935 0.592588 8.54376 0.364632 9.7052 0.365727V0.365727Z" fill="#EFEFEF"/>
<g style="mix-blend-mode:luminosity">
<path d="M14.0776 37.0443L11.8633 9.36572H38.4347L36.2204 37.0443L25.149 40.3657L14.0776 37.0443Z" fill="#1172B8"/>
<path d="M36.2199 11.58H25.1484V38.705L34.0056 35.9371L36.2199 11.58Z" fill="#33AADD"/>
<path d="M29.0243 25.4194H17.9528L17.3993 21.5444L26.2564 18.7765H17.3993L16.8457 15.4551H34.0064L33.4528 19.3301L26.2564 22.0979H32.8993L31.7921 32.6158L25.1493 34.8301L18.5064 32.6158L17.9528 27.0801H21.2743L21.8278 29.8479L25.1493 30.9551L28.4707 29.8479L29.0243 25.4194Z" fill="white"/>
</g>
</svg>
