<svg width="50" height="50" viewBox="0 0 50 50" fill="none" xmlns="http://www.w3.org/2000/svg">
<path d="M8.84192 0.365727H41.0889C42.2504 0.364632 43.4006 0.592588 44.4739 1.03655C45.5471 1.48051 46.5223 2.13176 47.3435 2.95302C48.1648 3.77429 48.8161 4.74945 49.26 5.82269C49.704 6.89594 49.9319 8.0462 49.9308 9.20765V40.2064C49.9319 41.3678 49.704 42.5181 49.26 43.5913C48.8161 44.6646 48.1648 45.6397 47.3435 46.461C46.5223 47.2823 45.5471 47.9335 44.4739 48.3775C43.4006 48.8214 42.2504 49.0494 41.0889 49.0483H8.84192C7.68048 49.0494 6.53022 48.8214 5.45697 48.3775C4.38373 47.9335 3.40857 47.2823 2.5873 46.461C1.76603 45.6397 1.11479 44.6646 0.670825 43.5913C0.226865 42.5181 -0.00109075 41.3678 3.92389e-06 40.2064V9.20765C-0.00109075 8.0462 0.226865 6.89594 0.670825 5.82269C1.11479 4.74945 1.76603 3.77429 2.5873 2.95302C3.40857 2.13176 4.38373 1.48051 5.45697 1.03655C6.53022 0.592588 7.68048 0.364632 8.84192 0.365727V0.365727Z" fill="#EFEFEF"/>
<path d="M20.332 40.5725C23.2045 40.5725 25.5331 38.2439 25.5331 35.3714V30.1703H20.332C17.4595 30.1703 15.1309 32.4989 15.1309 35.3714C15.1309 38.2439 17.4595 40.5725 20.332 40.5725Z" fill="#111111"/>
<path d="M15.1309 24.9691C15.1309 22.0966 17.4595 19.7679 20.332 19.7679H25.5331V30.1702H20.332C17.4595 30.1702 15.1309 27.8416 15.1309 24.9691Z" fill="#747474"/>
<path d="M15.1309 14.5669C15.1309 11.6943 17.4595 9.36572 20.332 9.36572H25.5331V19.768H20.332C17.4595 19.768 15.1309 17.4394 15.1309 14.5669Z" fill="#111111"/>
<path d="M25.5332 9.36572H30.7343C33.6068 9.36572 35.9355 11.6943 35.9355 14.5669C35.9355 17.4394 33.6068 19.768 30.7343 19.768H25.5332V9.36572Z" fill="#747474"/>
<path d="M35.9355 24.9691C35.9355 27.8416 33.6068 30.1702 30.7343 30.1702C27.8618 30.1702 25.5332 27.8416 25.5332 24.9691C25.5332 22.0966 27.8618 19.7679 30.7343 19.7679C33.6068 19.7679 35.9355 22.0966 35.9355 24.9691Z" fill="#111111"/>
</svg>
