<svg width="51" height="50" viewBox="0 0 51 50" fill="none" xmlns="http://www.w3.org/2000/svg">
<path d="M9.63684 0.365727H41.8838C43.0453 0.364632 44.1955 0.592588 45.2688 1.03655C46.342 1.48051 47.3172 2.13176 48.1385 2.95302C48.9597 3.77429 49.611 4.74945 50.0549 5.82269C50.4989 6.89594 50.7269 8.0462 50.7258 9.20765V40.2064C50.7269 41.3678 50.4989 42.5181 50.0549 43.5913C49.611 44.6646 48.9597 45.6397 48.1385 46.461C47.3172 47.2823 46.342 47.9335 45.2688 48.3775C44.1955 48.8214 43.0453 49.0494 41.8838 49.0483H9.63684C8.4754 49.0494 7.32514 48.8214 6.25189 48.3775C5.17865 47.9335 4.20349 47.2823 3.38222 46.461C2.56096 45.6397 1.90971 44.6646 1.46575 43.5913C1.02179 42.5181 0.793831 41.3678 0.794926 40.2064V9.20765C0.793831 8.0462 1.02179 6.89594 1.46575 5.82269C1.90971 4.74945 2.56096 3.77429 3.38222 2.95302C4.20349 2.13176 5.17865 1.48051 6.25189 1.03655C7.32514 0.592588 8.4754 0.364632 9.63684 0.365727V0.365727Z" fill="#EFEFEF"/>
<g style="mix-blend-mode:luminosity">
<path d="M15.0092 37.0443L12.7949 9.36572H39.3663L37.1521 37.0443L26.0806 40.3657L15.0092 37.0443Z" fill="#E44D26"/>
<path d="M37.1515 11.5798H26.0801V38.7048L34.9372 35.937L37.1515 11.5798Z" fill="#F16529"/>
<path d="M18.8864 25.4192L17.7793 14.9014H34.94L34.3864 18.2228H21.1007L21.6543 22.0978H33.8329L32.7257 32.6156L26.0829 34.8299L19.44 32.6156L18.8864 27.0799H22.2079L22.7614 29.8478L26.0829 30.9549L29.4043 29.8478L29.9579 25.4192H18.8864Z" fill="white"/>
</g>
</svg>
