<svg width="51" height="49" viewBox="0 0 51 49" fill="none" xmlns="http://www.w3.org/2000/svg">
<path d="M9.7052 0.000248065H41.9522C43.1136 -0.000846606 44.2639 0.227109 45.3372 0.67107C46.4104 1.11503 47.3856 1.76628 48.2068 2.58754C49.0281 3.40881 49.6793 4.38397 50.1233 5.45722C50.5673 6.53046 50.7952 7.68072 50.7941 8.84217V39.8409C50.7952 41.0023 50.5673 42.1526 50.1233 43.2258C49.6793 44.2991 49.0281 45.2743 48.2068 46.0955C47.3856 46.9168 46.4104 47.568 45.3372 48.012C44.2639 48.456 43.1136 48.6839 41.9522 48.6828H9.7052C8.54376 48.6839 7.3935 48.456 6.32025 48.012C5.24701 47.568 4.27185 46.9168 3.45058 46.0955C2.62932 45.2743 1.97807 44.2991 1.53411 43.2258C1.09015 42.1526 0.862191 41.0023 0.863285 39.8409V8.84217C0.862191 7.68072 1.09015 6.53046 1.53411 5.45722C1.97807 4.38397 2.62932 3.40881 3.45058 2.58754C4.27185 1.76628 5.24701 1.11503 6.32025 0.67107C7.3935 0.227109 8.54376 -0.000846606 9.7052 0.000248065Z" fill="#EFEFEF"/>
<path d="M18.5027 14.0614V35.4068C18.5027 35.6357 18.3987 35.7397 18.2114 35.7397H14.1337C13.9465 35.7397 13.8633 35.6357 13.8633 35.4068V14.0614C13.8633 13.8742 13.9673 13.791 14.1545 13.791H18.2114C18.243 13.786 18.2752 13.7875 18.3061 13.7954C18.3371 13.8033 18.3661 13.8174 18.3914 13.8368C18.4167 13.8563 18.4378 13.8807 18.4533 13.9086C18.4689 13.9365 18.4786 13.9672 18.4819 13.999C18.4897 14.0072 18.4957 14.0171 18.4993 14.0279C18.5029 14.0387 18.504 14.0501 18.5027 14.0614Z" fill="#111111"/>
<path d="M30.4861 36.0725C28.9439 36.0978 27.4156 35.778 26.0131 35.1363C24.7082 34.5261 23.6145 33.5411 22.8716 32.3069C22.1018 31.0378 21.7274 29.4567 21.7274 27.5635C21.7063 26.0238 22.1016 24.5071 22.8716 23.1737C23.6611 21.8185 24.8046 20.7038 26.1795 19.949C27.6358 19.1376 29.3834 18.7424 31.4431 18.7424C31.589 18.7407 31.7349 18.7477 31.88 18.7632C32.0672 18.784 32.2753 18.784 32.5249 18.8048V12.2305C32.5249 12.0849 32.5873 12.0017 32.733 12.0017H36.9563C37.0029 11.9954 37.0502 12.0069 37.0888 12.0338C37.1273 12.0608 37.1543 12.1013 37.1643 12.1473V31.9948C37.1643 32.3693 37.1851 32.7854 37.2059 33.2431C37.2267 33.7008 37.2683 34.0961 37.2891 34.4498C37.2936 34.52 37.2759 34.5899 37.2386 34.6496C37.2013 34.7093 37.1462 34.7558 37.0811 34.7826C35.9914 35.2406 34.854 35.5756 33.69 35.7813C32.6327 35.9729 31.5605 36.0703 30.4861 36.0725ZM32.5249 31.9116V22.7576C32.3397 22.7129 32.1522 22.6782 31.9632 22.6536C31.7343 22.6328 31.5055 22.612 31.2766 22.612C30.4611 22.6028 29.6552 22.7882 28.9257 23.1529C28.2148 23.5072 27.6061 24.0371 27.1573 24.6924C26.6996 25.3582 26.4708 26.2528 26.4708 27.3346C26.4527 28.0648 26.5727 28.7919 26.8245 29.4775C27.0257 30.0319 27.3451 30.536 27.7607 30.9546C28.1618 31.3374 28.646 31.6222 29.1754 31.7868C29.7327 31.9693 30.3158 32.0606 30.9022 32.0572C31.2142 32.0572 31.5055 32.0364 31.7759 32.0156C32.0302 32.0352 32.2856 31.9998 32.5249 31.9116Z" fill="#111111"/>
</svg>
