<svg width="51" height="50" viewBox="0 0 51 50" fill="none" xmlns="http://www.w3.org/2000/svg">
<path d="M9.56849 0.365727H41.8155C42.9769 0.364632 44.1272 0.592588 45.2004 1.03655C46.2737 1.48051 47.2488 2.13176 48.0701 2.95302C48.8914 3.77429 49.5426 4.74945 49.9866 5.82269C50.4305 6.89594 50.6585 8.0462 50.6574 9.20765V40.2064C50.6585 41.3678 50.4305 42.5181 49.9866 43.5913C49.5426 44.6646 48.8914 45.6397 48.0701 46.461C47.2488 47.2823 46.2737 47.9335 45.2004 48.3775C44.1272 48.8214 42.9769 49.0494 41.8155 49.0483H9.56849C8.40704 49.0494 7.25678 48.8214 6.18353 48.3775C5.11029 47.9335 4.13513 47.2823 3.31386 46.461C2.4926 45.6397 1.84135 44.6646 1.39739 43.5913C0.953428 42.5181 0.725472 41.3678 0.726566 40.2064V9.20765C0.725472 8.0462 0.953428 6.89594 1.39739 5.82269C1.84135 4.74945 2.4926 3.77429 3.31386 2.95302C4.13513 2.13176 5.11029 1.48051 6.18353 1.03655C7.25678 0.592588 8.40704 0.364632 9.56849 0.365727V0.365727Z" fill="#EFEFEF"/>
<g style="mix-blend-mode:luminosity">
<rect x="9.72656" y="9.3656" width="31" height="31" fill="#FFCA28"/>
<path d="M28.5499 35.1484L30.8324 33.6382C31.0112 34.2001 32.1439 35.5348 33.5747 35.5348C35.0054 35.5348 35.6697 34.7533 35.6697 34.2353C35.6697 32.8234 34.2087 32.3257 33.507 32.0866C33.3926 32.0476 33.2984 32.0155 33.234 31.9874C33.201 31.9731 33.151 31.954 33.0869 31.9295C32.3064 31.6313 29.4271 30.5312 29.4271 27.3425C29.4271 23.8303 32.8167 23.4264 33.5832 23.4264C34.0847 23.4264 36.4958 23.4879 37.6966 25.7445L35.4824 27.2898C34.9969 26.3064 34.1904 25.9815 33.6939 25.9815C32.4675 25.9815 32.212 26.8806 32.212 27.2898C32.212 28.4382 33.5444 28.9529 34.6695 29.3875C34.9638 29.5012 35.244 29.6094 35.4824 29.722C36.7087 30.3016 38.5142 31.2499 38.5142 34.2353C38.5142 35.7306 37.26 38.1514 34.1027 38.1514C29.8615 38.1514 28.7373 35.605 28.5499 35.1484Z" fill="#3E3E3E"/>
<path d="M17.4785 35.4483L19.8574 33.9389C20.0438 34.5005 20.7681 35.5361 21.8191 35.5361C22.8701 35.5361 23.408 34.4566 23.408 33.9389V23.7585H26.3337V33.9389C26.381 35.343 25.6022 38.1514 22.1653 38.1514C19.0053 38.1514 17.6916 36.2733 17.4785 35.4483Z" fill="#3E3E3E"/>
</g>
</svg>
