<svg width="1875" height="267" viewBox="0 0 1875 267" fill="none" xmlns="http://www.w3.org/2000/svg">
<path d="M602.58 0C622.18 3.69291e-05 639.362 2.38954 654.126 7.16797C668.89 11.9464 681.236 18.6361 691.163 27.2373C701.345 35.5996 709.109 45.6346 714.455 57.3418C719.801 69.0491 722.855 81.9514 723.619 96.0479H634.271C633.762 91.0307 632.617 86.4913 630.835 82.4297C629.308 78.129 627.144 74.6643 624.344 72.0361C621.798 69.1691 618.616 67.0185 614.798 65.585C611.234 63.9126 607.162 63.0762 602.58 63.0762C598.507 63.0762 594.816 63.5541 591.507 64.5098C588.452 65.2265 585.779 66.4213 583.488 68.0938C581.197 69.5273 579.415 71.3194 578.143 73.4697C577.124 75.3811 576.615 77.6511 576.615 80.2793C576.615 83.3853 577.379 86.1332 578.906 88.5225C580.434 90.6727 582.979 92.7039 586.543 94.6152C590.361 96.2877 595.198 97.8399 601.053 99.2734C606.907 100.707 614.162 102.141 622.816 103.574C643.181 106.68 660.108 110.742 673.6 115.76C687.091 120.777 697.782 126.631 705.673 133.321C713.564 140.011 719.037 147.657 722.092 156.258C725.146 164.62 726.674 173.938 726.674 184.212C726.674 196.875 724.001 208.343 718.655 218.617C713.564 228.891 705.927 237.612 695.745 244.78C685.818 251.948 673.599 257.443 659.09 261.266C644.58 265.088 628.162 267 609.834 267C589.47 267 571.397 264.73 555.615 260.19C540.088 255.651 526.978 249.2 516.287 240.838C505.596 232.237 497.322 221.963 491.468 210.017C485.868 197.831 482.813 184.212 482.304 169.16H572.033C572.797 174.894 574.07 179.911 575.852 184.212C577.888 188.513 580.434 192.097 583.488 194.964C586.797 197.831 590.616 200.101 594.943 201.773C599.271 203.207 604.234 203.924 609.834 203.924C614.161 203.924 617.98 203.565 621.289 202.849C624.853 202.132 627.908 201.176 630.453 199.981C632.999 198.548 634.908 196.756 636.181 194.605C637.708 192.216 638.472 189.588 638.472 186.721C638.472 184.093 637.963 181.703 636.944 179.553C635.926 177.402 633.762 175.371 630.453 173.46C627.144 171.549 622.18 169.757 615.562 168.085C609.198 166.174 600.671 164.143 589.979 161.992C571.906 158.647 556.379 154.824 543.396 150.523C530.414 146.223 519.851 140.966 511.705 134.754C503.559 128.542 497.577 121.135 493.759 112.534C489.941 103.933 488.031 93.5396 488.031 81.3545C488.031 69.4083 490.577 58.4176 495.668 48.3828C500.759 38.3479 508.269 29.7459 518.196 22.5781C528.124 15.4105 540.088 9.91554 554.088 6.09277C568.343 2.03108 584.507 0 602.58 0ZM975.744 0C1011.64 3.46266e-05 1041.55 8.60107 1065.47 25.8037C1089.4 43.0063 1104.55 68.6912 1110.91 102.857H1020.8C1018 90.6723 1012.53 81.2348 1004.38 74.5449C996.49 67.8551 986.435 64.5098 974.217 64.5098C965.817 64.5098 958.307 66.0629 951.688 69.1689C945.325 72.275 939.852 76.815 935.271 82.7881C930.689 88.5223 927.125 95.6898 924.579 104.291C922.288 112.653 921.143 122.092 921.143 132.604C921.143 143.595 922.288 153.51 924.579 162.351C926.87 170.952 930.307 178.239 934.889 184.212C939.725 190.185 945.579 194.725 952.452 197.831C959.58 200.937 967.726 202.49 976.89 202.49C982.49 202.49 987.58 202.012 992.162 201.057C996.999 199.862 1001.33 198.189 1005.14 196.039C1009.22 193.65 1012.78 190.782 1015.84 187.438C1018.89 183.854 1021.44 179.791 1023.47 175.252H975.744V121.494H1111.67V261.624H1062.04L1056.31 229.728C1046.38 241.913 1033.91 251.231 1018.89 257.682C1003.87 263.894 986.817 267 967.726 267C946.852 267 928.015 263.894 911.215 257.682C894.669 251.231 880.541 242.271 868.832 230.803C857.123 219.095 848.086 205.118 841.723 188.871C835.613 172.624 832.559 154.704 832.559 135.112C832.559 114.565 835.868 95.9288 842.486 79.2041C849.105 62.4793 858.523 48.263 870.741 36.5557C883.214 24.8483 898.233 15.8888 915.797 9.67676C933.615 3.22575 953.598 0 975.744 0ZM104.62 5.37598C152.73 5.37598 189.514 16.4859 214.969 38.7061C240.678 60.6872 253.533 92.4642 253.533 134.037C253.533 175.371 240.678 207.03 214.969 229.011C189.514 250.753 152.73 261.624 104.62 261.624H0V5.37598H104.62ZM476.869 69.8857H350.866V101.065H469.232V164.859H350.866V197.114H478.396V261.624H264.191V5.37598H476.869V69.8857ZM821.826 261.624H735.151V5.37598H821.826V261.624ZM1293.92 138.338V5.37598H1380.59V261.624H1288.19L1214.12 137.621V261.624H1127.44V5.37598H1218.32L1293.92 138.338ZM1608.4 69.8857H1482.4V101.065H1600.77V164.859H1482.4V197.114H1609.93V261.624H1395.73V5.37598H1608.4V69.8857ZM1752.43 5.37598C1791.63 5.37598 1820.53 12.7823 1839.11 27.5957C1857.69 42.1702 1866.98 63.6742 1866.98 92.1064C1866.98 120.538 1857.69 142.161 1839.11 156.975C1833.65 161.258 1827.29 164.911 1820.05 167.936L1875 261.624H1775.34L1735.08 178.836H1710.05V261.624H1623.38V5.37598H1752.43ZM86.6748 197.114H102.33C123.967 197.114 139.748 191.857 149.676 181.345C159.603 170.832 164.567 154.824 164.567 133.321C164.567 111.818 159.603 95.9291 149.676 85.6553C140.003 75.1426 124.221 69.8858 102.33 69.8857H86.6748V197.114ZM1710.05 117.91H1748.62C1758.29 117.91 1765.8 115.999 1771.14 112.176C1776.49 108.353 1779.16 102.26 1779.16 93.8984C1779.16 85.5362 1776.49 79.443 1771.14 75.6201C1765.8 71.7973 1758.29 69.8857 1748.62 69.8857H1710.05V117.91Z" fill="#111111"/>
</svg>
