<svg width="51" height="49" viewBox="0 0 51 49" fill="none" xmlns="http://www.w3.org/2000/svg">
<path d="M9.63684 3.92389e-06H41.8838C43.0453 -0.00109075 44.1955 0.226865 45.2688 0.670825C46.342 1.11479 47.3172 1.76603 48.1385 2.5873C48.9597 3.40857 49.611 4.38373 50.0549 5.45697C50.4989 6.53022 50.7269 7.68048 50.7258 8.84192V39.8406C50.7269 41.0021 50.4989 42.1524 50.0549 43.2256C49.611 44.2988 48.9597 45.274 48.1385 46.0953C47.3172 46.9165 46.342 47.5678 45.2688 48.0117C44.1955 48.4557 43.0453 48.6837 41.8838 48.6826H9.63684C8.4754 48.6837 7.32514 48.4557 6.25189 48.0117C5.17865 47.5678 4.20349 46.9165 3.38222 46.0953C2.56096 45.274 1.90971 44.2988 1.46575 43.2256C1.02179 42.1524 0.793831 41.0021 0.794926 39.8406V8.84192C0.793831 7.68048 1.02179 6.53022 1.46575 5.45697C1.90971 4.38373 2.56096 3.40857 3.38222 2.5873C4.20349 1.76603 5.17865 1.11479 6.25189 0.670825C7.32514 0.226865 8.4754 -0.00109075 9.63684 3.92389e-06Z" fill="#EFEFEF"/>
<path d="M11.7949 34.7614V13.3536C11.7949 13.2079 11.8573 13.1247 12.003 13.1247C12.3566 13.1247 12.6895 13.1247 13.168 13.1039C13.6465 13.0831 14.1874 13.0831 14.7492 13.0623C15.3109 13.0415 15.9142 13.0415 16.5592 13.0207C17.2041 12.9999 17.8282 12.9999 18.4524 12.9999C20.1583 12.9999 21.573 13.2079 22.7381 13.6448C23.7825 13.9995 24.7348 14.5822 25.5259 15.3508C26.1963 16.0234 26.7142 16.8322 27.0446 17.7225C27.3596 18.5895 27.5215 19.5047 27.5231 20.4271C27.5231 22.2163 27.107 23.6934 26.2749 24.8585C25.4388 26.0219 24.2716 26.9064 22.9253 27.3966C21.5106 27.9167 19.9503 28.104 18.2443 28.104C17.745 28.104 17.4121 28.104 17.2041 28.0832C16.9961 28.0623 16.7048 28.0623 16.3095 28.0623V34.7406C16.3141 34.7748 16.3119 34.8096 16.3028 34.843C16.2937 34.8763 16.2781 34.9075 16.2567 34.9347C16.2354 34.9618 16.2088 34.9844 16.1785 35.0011C16.1483 35.0178 16.115 35.0283 16.0807 35.0319H12.0446C11.8781 35.0319 11.7949 34.9486 11.7949 34.7614ZM16.3303 17.14V24.1303C16.6216 24.1511 16.892 24.1719 17.1417 24.1719H18.2443C19.0565 24.1729 19.8638 24.0465 20.6368 23.7974C21.3001 23.6024 21.8926 23.2194 22.3428 22.6948C22.7797 22.1747 22.9878 21.4673 22.9878 20.5519C23.0073 19.9018 22.8414 19.2596 22.5092 18.7003C22.1624 18.1601 21.6522 17.7447 21.0529 17.5145C20.2719 17.2086 19.4362 17.0669 18.598 17.0984C18.0571 17.0984 17.5786 17.0984 17.1833 17.1192C16.8989 17.1006 16.6134 17.1075 16.3303 17.14Z" fill="#111111"/>
<path d="M30.4373 18.3467H34.0781C34.1767 18.3491 34.272 18.3826 34.3505 18.4424C34.4289 18.5021 34.4865 18.5852 34.515 18.6796C34.5785 18.847 34.6204 19.0218 34.6398 19.1997C34.6814 19.4078 34.723 19.6366 34.7438 19.8447C34.7646 20.0527 34.7854 20.3232 34.7854 20.5936C35.4101 19.8644 36.165 19.2577 37.0115 18.8044C37.9786 18.2672 39.0676 17.9878 40.1738 17.9931C40.208 17.9884 40.2429 17.9907 40.2762 17.9998C40.3095 18.0088 40.3407 18.0245 40.3679 18.0458C40.395 18.0672 40.4176 18.0938 40.4343 18.124C40.451 18.1543 40.4615 18.1876 40.4651 18.2219V22.362C40.4651 22.5284 40.3611 22.5909 40.1322 22.5909C39.3775 22.5662 38.6227 22.636 37.8853 22.7989C37.2843 22.923 36.6984 23.1113 36.1377 23.3606C35.7352 23.5421 35.3741 23.8041 35.0767 24.1304V34.7407C35.0767 34.9487 34.9935 35.032 34.8062 35.032H30.7078C30.6694 35.0384 30.6301 35.037 30.5923 35.0278C30.5545 35.0187 30.5189 35.0019 30.4878 34.9785C30.4566 34.9552 30.4306 34.9258 30.4112 34.892C30.3918 34.8583 30.3794 34.821 30.3749 34.7823V23.1734C30.3749 22.6741 30.3749 22.154 30.3541 21.6131C30.3333 21.0721 30.3333 20.5312 30.3125 19.9903C30.3125 19.5118 30.2709 19.0541 30.2293 18.5756C30.2237 18.551 30.2231 18.5256 30.2275 18.5007C30.2318 18.4759 30.241 18.4522 30.2545 18.4309C30.2681 18.4097 30.2857 18.3913 30.3063 18.3768C30.327 18.3624 30.3503 18.3522 30.3749 18.3467C30.3749 18.3259 30.4165 18.3259 30.4373 18.3467Z" fill="#111111"/>
</svg>
