<svg width="50" height="49" viewBox="0 0 50 49" fill="none" xmlns="http://www.w3.org/2000/svg">
<path d="M8.84192 3.92389e-06H41.0889C42.2504 -0.00109075 43.4006 0.226865 44.4739 0.670825C45.5471 1.11479 46.5223 1.76603 47.3435 2.5873C48.1648 3.40857 48.8161 4.38373 49.26 5.45697C49.704 6.53022 49.9319 7.68048 49.9308 8.84192V39.8406C49.9319 41.0021 49.704 42.1524 49.26 43.2256C48.8161 44.2988 48.1648 45.274 47.3435 46.0953C46.5223 46.9165 45.5471 47.5678 44.4739 48.0117C43.4006 48.4557 42.2504 48.6837 41.0889 48.6826H8.84192C7.68048 48.6837 6.53022 48.4557 5.45697 48.0117C4.38373 47.5678 3.40857 46.9165 2.5873 46.0953C1.76603 45.274 1.11479 44.2988 0.670825 43.2256C0.226865 42.1524 -0.00109075 41.0021 3.92389e-06 39.8406V8.84192C-0.00109075 7.68048 0.226865 6.53022 0.670825 5.45697C1.11479 4.38373 1.76603 3.40857 2.5873 2.5873C3.40857 1.76603 4.38373 1.11479 5.45697 0.670825C6.53022 0.226865 7.68048 -0.00109075 8.84192 3.92389e-06Z" fill="#EFEFEF"/>
<path d="M10 34.7615V13.3537C10 13.208 10.0624 13.1248 10.208 13.1248C10.5617 13.1248 10.8946 13.1248 11.3731 13.104C11.8516 13.0832 12.3925 13.0832 12.9542 13.0624C13.516 13.0416 14.1193 13.0416 14.7642 13.0208C15.4092 13 16.0333 13 16.6574 13C18.3634 13 19.7781 13.208 20.9432 13.6449C21.9876 13.9996 22.9399 14.5824 23.731 15.3509C24.4014 16.0235 24.9193 16.8323 25.2497 17.7226C25.5646 18.5896 25.7266 19.5048 25.7282 20.4272C25.7282 22.2164 25.3121 23.6935 24.4799 24.8586C23.6439 26.022 22.4766 26.9065 21.1304 27.3967C19.7157 27.9168 18.1554 28.1041 16.4494 28.1041C15.9501 28.1041 15.6172 28.1041 15.4092 28.0833C15.2011 28.0625 14.9099 28.0625 14.5146 28.0625V34.7407C14.5192 34.775 14.5169 34.8098 14.5079 34.8431C14.4988 34.8764 14.4831 34.9076 14.4618 34.9348C14.4405 34.9619 14.4139 34.9845 14.3836 35.0012C14.3534 35.0179 14.3201 35.0284 14.2857 35.032H10.2497C10.0832 35.032 10 34.9488 10 34.7615ZM14.5354 17.1401V24.1304C14.8266 24.1512 15.0971 24.172 15.3468 24.172H16.4494C17.2616 24.173 18.0689 24.0466 18.8419 23.7975C19.5051 23.6025 20.0977 23.2195 20.5479 22.6949C20.9848 22.1748 21.1928 21.4674 21.1928 20.552C21.2124 19.9019 21.0464 19.2597 20.7143 18.7004C20.3674 18.1603 19.8573 17.7448 19.258 17.5146C18.477 17.2087 17.6413 17.067 16.8031 17.0985C16.2622 17.0985 15.7837 17.0985 15.3884 17.1193C15.104 17.1007 14.8185 17.1077 14.5354 17.1401Z" fill="#111111"/>
<path d="M38.7097 22.8612C38.0816 22.5304 37.4088 22.2921 36.7125 22.1539C35.9477 21.9807 35.1665 21.89 34.3824 21.8834C33.9613 21.8689 33.5405 21.918 33.1341 22.0291C32.875 22.083 32.6451 22.2313 32.4892 22.4452C32.3841 22.614 32.3265 22.8081 32.3227 23.0069C32.3324 23.2048 32.4053 23.3944 32.5308 23.5478C32.728 23.7791 32.9682 23.9698 33.2381 24.1095C33.7166 24.3592 34.2159 24.588 34.7153 24.7961C35.8393 25.1745 36.9147 25.6842 37.9191 26.3148C38.6024 26.7444 39.1673 27.338 39.5627 28.0416C39.897 28.7053 40.0614 29.4416 40.0412 30.1844C40.0581 31.1678 39.7751 32.1329 39.2298 32.9514C38.6495 33.7819 37.8398 34.4253 36.8997 34.803C35.8803 35.2399 34.632 35.4688 33.1341 35.4688C32.1843 35.4726 31.2365 35.382 30.3047 35.1983C29.5709 35.0715 28.8573 34.8477 28.1826 34.5326C28.1101 34.4962 28.0498 34.4394 28.0091 34.3691C27.9685 34.2989 27.9492 34.2183 27.9538 34.1373V30.5173C27.952 30.4818 27.9586 30.4463 27.973 30.4137C27.9875 30.3812 28.0094 30.3526 28.037 30.3301C28.0663 30.313 28.1003 30.3058 28.1341 30.3095C28.1678 30.3133 28.1994 30.3278 28.2242 30.3509C29.0256 30.8233 29.8961 31.1673 30.804 31.3703C31.6056 31.5789 32.4306 31.6837 33.2589 31.6824C34.0495 31.6824 34.6112 31.5783 34.9857 31.3911C35.1527 31.3139 35.2943 31.1908 35.3938 31.036C35.4933 30.8812 35.5466 30.7013 35.5474 30.5173C35.5474 30.226 35.381 29.9556 35.0481 29.6851C34.7152 29.4147 34.0287 29.1026 33.0093 28.7073C31.9635 28.3388 30.9703 27.8352 30.055 27.2094C29.4031 26.7448 28.863 26.1406 28.4739 25.441C28.1419 24.7839 27.9775 24.0549 27.9954 23.3189C27.9985 22.4312 28.243 21.561 28.7027 20.8016C29.2312 19.9664 29.9898 19.3018 30.8872 18.8876C31.865 18.3883 33.0925 18.1594 34.5696 18.1594C35.4329 18.1597 36.2951 18.2222 37.1494 18.3467C37.7636 18.4298 38.3648 18.5906 38.9386 18.8252C39.03 18.8576 39.1048 18.9249 39.1466 19.0124C39.1706 19.0936 39.1846 19.1775 39.1882 19.2621V22.6532C39.1886 22.6936 39.1793 22.7336 39.1612 22.7697C39.1431 22.8059 39.1167 22.8373 39.0842 22.8612C38.9632 22.9048 38.8308 22.9048 38.7097 22.8612Z" fill="#111111"/>
</svg>
