<?xml version="1.0" encoding="UTF-8"?>
<svg id="_레이어_1" data-name="레이어 1" xmlns="http://www.w3.org/2000/svg" viewBox="0 0 251.62 256.25">
  <defs>
    <style>
      .cls-1 {
        fill: #111;
      }
    </style>
  </defs>
  <path class="cls-1" d="M196.67,162.56c7.24-3.02,13.6-6.68,19.06-10.96,18.58-14.81,27.87-36.44,27.87-64.87s-9.29-49.94-27.87-64.51C197.15,7.41,168.25,0,129.05,0H0v256.25h86.67v-82.79h25.03l40.26,82.79h99.66l-54.95-93.69ZM147.76,106.8c-5.34,3.82-12.85,5.73-22.52,5.73h-38.57v-48.02h38.57c9.67,0,17.18,1.91,22.52,5.73,5.35,3.82,8.02,9.92,8.02,18.28s-2.67,14.45-8.02,18.28Z"/>
</svg>