<?xml version="1.0" encoding="UTF-8"?>
<svg id="_레이어_1" data-name="레이어 1" xmlns="http://www.w3.org/2000/svg" viewBox="0 0 244.07 267">
  <defs>
    <style>
      .cls-1 {
        fill: #111;
      }
    </style>
  </defs>
  <path class="cls-1" d="M223.07,133.32c-7.89-6.69-18.58-12.54-32.07-17.56-13.49-5.02-30.42-9.08-50.78-12.19-8.65-1.43-15.91-2.87-21.76-4.3-5.85-1.43-10.69-2.99-14.51-4.66-3.56-1.91-6.11-3.94-7.64-6.09-1.53-2.39-2.29-5.14-2.29-8.24,0-2.63.51-4.9,1.53-6.81,1.27-2.15,3.05-3.94,5.34-5.38,2.29-1.67,4.96-2.87,8.02-3.58,3.31-.96,7-1.43,11.07-1.43,4.58,0,8.65.84,12.22,2.51,3.82,1.43,7,3.58,9.55,6.45,2.8,2.63,4.96,6.09,6.49,10.39,1.78,4.06,2.93,8.6,3.44,13.62h89.35c-.76-14.1-3.82-27-9.16-38.71-5.35-11.71-13.11-21.74-23.29-30.1-9.93-8.6-22.27-15.29-37.04-20.07C156.76,2.39,139.58,0,119.98,0,101.9,0,85.74,2.03,71.48,6.09c-14,3.82-25.96,9.32-35.89,16.49-9.93,7.17-17.44,15.77-22.53,25.8-5.09,10.03-7.64,21.03-7.64,32.97s1.91,22.58,5.73,31.18,9.8,16.01,17.95,22.22c8.15,6.21,18.71,11.47,31.69,15.77,12.98,4.3,28.51,8.12,46.58,11.47,10.69,2.15,19.22,4.18,25.58,6.09,6.62,1.67,11.58,3.46,14.89,5.38,3.31,1.91,5.47,3.94,6.49,6.09,1.02,2.15,1.53,4.54,1.53,7.17,0,2.87-.76,5.49-2.29,7.88-1.27,2.15-3.18,3.94-5.73,5.38-2.54,1.19-5.6,2.15-9.16,2.87-3.31.72-7.13,1.08-11.46,1.08-5.6,0-10.56-.72-14.89-2.15-4.33-1.67-8.15-3.94-11.46-6.81-3.05-2.87-5.6-6.45-7.64-10.75-1.78-4.3-3.05-9.32-3.82-15.05H-.3c.51,15.05,3.56,28.67,9.16,40.86,5.85,11.95,14.13,22.22,24.82,30.82,10.69,8.36,23.8,14.81,39.33,19.35,15.78,4.54,33.85,6.81,54.22,6.81,18.33,0,34.75-1.91,49.26-5.73,14.51-3.82,26.73-9.32,36.65-16.49,10.18-7.17,17.82-15.89,22.91-26.16,5.35-10.27,8.02-21.74,8.02-34.41,0-10.27-1.53-19.59-4.58-27.95-3.05-8.6-8.53-16.25-16.42-22.94Z"/>
</svg>