<svg width="324" height="256" viewBox="0 0 324 256" fill="none" xmlns="http://www.w3.org/2000/svg">
<rect width="324" height="256" fill="black"/>
<path d="M207.675 132.496C208.974 132.496 210.027 131.443 210.027 130.144C210.027 128.845 208.974 127.792 207.675 127.792C206.375 127.792 205.322 128.845 205.322 130.144C205.322 131.443 206.375 132.496 207.675 132.496Z" fill="white"/>
<path d="M162.176 163.679C120.779 163.679 88.3516 143.553 88.3516 117.858C88.3516 92.1628 120.779 72.0391 162.176 72.0391C203.573 72.0391 236 92.1658 236 117.858C236 143.55 203.57 163.679 162.176 163.679ZM162.176 74.6949C122.267 74.6949 91.0074 93.6543 91.0074 117.858C91.0074 142.061 122.267 161.02 162.176 161.02C202.084 161.02 233.345 142.061 233.345 117.858C233.345 93.6543 202.082 74.6949 162.176 74.6949Z" fill="white"/>
<path d="M162.176 156.281C125.548 156.281 95.75 139.046 95.75 117.858C95.75 96.6706 125.548 79.4385 162.176 79.4385C198.804 79.4385 228.602 96.6735 228.602 117.858C228.602 139.043 198.804 156.281 162.176 156.281ZM162.176 80.5733C126.176 80.5733 96.8878 97.2984 96.8878 117.858C96.8878 138.418 126.176 155.143 162.176 155.143C198.176 155.143 227.464 138.418 227.464 117.858C227.464 97.2984 198.176 80.5733 162.176 80.5733Z" fill="white"/>
<path d="M200.107 129.734L193.598 118.51C197.961 116.882 201.539 113.516 201.539 109.195C201.539 102.742 194.768 99.0373 186.96 99.0373H171.013V99.7683C174.594 100.44 175.959 103.303 175.959 109.083V124.154C173.138 119.214 168.41 116.222 163.107 115.341V99.7123C163.107 94.8869 163.564 90.3416 167.989 89.4986V88.7676C166.102 88.8796 164.148 88.9356 162.456 88.9356C160.699 88.9356 159.072 88.8796 157.38 88.7676L144.687 119.689L130.497 88.7676C128.935 88.8796 127.243 88.8796 125.486 88.8796C123.665 88.8796 121.84 88.8236 120.148 88.7676V89.4986C124.573 90.3387 125.029 94.716 125.029 99.7683V116.77C125.029 122.775 123.791 126.536 119.889 127.32V128.048C121.908 127.88 123.665 127.824 125.486 127.824C127.57 127.824 129.587 127.88 131.8 128.048V127.32C128.154 126.645 126.595 122.831 126.595 116.77V95.615L141.958 127.954C141.265 130.144 140.876 132.599 140.876 135.32C140.876 148.62 149.858 155.692 159.753 155.692C168.994 155.692 177.386 149.602 178.55 138.1C178.792 138.1 179.037 138.097 179.278 138.097C181.946 138.097 184.552 138.153 187.284 138.321V137.593C182.597 136.806 182.079 132.54 182.079 127.998V119.636H183.9C187.284 119.692 188.263 120.927 189.955 124.069L194.25 131.644C195.617 134.227 196.658 136.638 197.115 138.324C198.807 138.268 200.761 138.212 202.907 138.212C204.664 138.212 206.553 138.268 208.505 138.324V137.537C205.704 136.918 203.037 134.563 200.107 129.734ZM145.94 120.933L156.988 94.2119V115.249C152.758 115.83 148.85 117.752 145.94 120.933ZM159.75 154.627C153.371 154.627 148.749 149.071 148.749 135.323C148.749 123.748 152.08 117.997 156.988 116.523C157.864 116.261 158.786 116.131 159.75 116.131C160.932 116.131 162.058 116.322 163.104 116.72C167.706 118.471 170.816 124.216 170.816 135.323C170.816 149.071 166.129 154.627 159.75 154.627ZM186.373 118.457H182.079V100.272C183.511 100.216 185.268 100.16 186.503 100.16C191.06 100.16 193.987 103.135 193.987 109.027C193.987 114.751 191.449 118.457 186.373 118.457Z" fill="white"/>
<path d="M123.462 189.412V189.648C122.469 189.592 121.602 189.574 120.756 189.574C119.951 189.574 119.17 189.592 118.41 189.648V189.412C119.488 189.177 119.827 188.28 119.827 186.202V178.653L115.259 189.704H114.984L109.95 179.11V185.984C109.95 187.953 110.457 189.194 111.642 189.412V189.648C110.923 189.592 110.268 189.574 109.59 189.574C108.998 189.574 108.426 189.592 107.771 189.648V189.412C109.039 189.156 109.443 187.936 109.443 185.984V180.46C109.443 178.818 109.295 177.398 107.857 177.124V176.888C108.408 176.905 109.001 176.923 109.59 176.923C110.162 176.923 110.71 176.923 111.217 176.888L115.827 186.936L119.951 176.888C120.502 176.923 121.03 176.944 121.602 176.944C122.153 176.944 122.787 176.926 123.4 176.888V177.124C121.962 177.398 121.814 178.874 121.814 180.443V186.079C121.811 188.118 122.277 189.194 123.462 189.412Z" fill="white"/>
<path d="M125.006 183.248C125.006 178.962 127.924 176.666 131.14 176.666C134.377 176.666 137.295 178.962 137.295 183.248C137.295 187.569 134.377 189.869 131.14 189.869C127.924 189.869 125.006 187.569 125.006 183.248ZM134.733 183.248C134.733 178.818 133.209 177.011 131.137 177.011C129.065 177.011 127.561 178.815 127.561 183.248C127.561 187.717 129.062 189.521 131.137 189.521C133.209 189.521 134.733 187.717 134.733 183.248Z" fill="white"/>
<path d="M151.083 189.395V189.651C150.449 189.633 149.836 189.616 149.264 189.616C148.565 189.616 147.931 189.633 147.38 189.651C147.233 189.103 146.894 188.319 146.449 187.482L145.052 185.02C144.5 184 144.185 183.597 143.086 183.579H142.493V186.297C142.493 187.773 142.661 189.159 144.185 189.415V189.651C143.298 189.595 142.452 189.577 141.582 189.577C140.695 189.577 139.784 189.595 138.832 189.651V189.415C140.017 189.215 140.503 188.121 140.503 186.079V180.151C140.503 178.273 140.058 177.342 138.897 177.124V176.888H144.079C146.617 176.888 148.816 178.09 148.816 180.189C148.816 181.592 147.651 182.689 146.237 183.216L148.35 186.863C149.308 188.428 150.175 189.194 151.083 189.395ZM143.893 183.196C145.544 183.196 146.369 181.993 146.369 180.133C146.369 178.217 145.417 177.253 143.937 177.253C143.537 177.253 142.965 177.271 142.499 177.289V183.196H143.893Z" fill="white"/>
<path d="M164.748 189.412V189.648C163.838 189.592 162.95 189.574 162.019 189.574C161.087 189.574 160.221 189.592 159.334 189.648V189.412C160.645 189.212 161.067 188.372 161.067 186.476V183.196H155.398V186.476C155.398 188.41 155.844 189.212 157.132 189.412V189.648C156.221 189.592 155.375 189.574 154.446 189.574C153.494 189.574 152.628 189.592 151.717 189.648V189.412C152.881 189.177 153.388 188.118 153.388 186.276V180.13C153.388 178.288 152.922 177.321 151.782 177.121V176.885C152.692 176.92 153.642 176.958 154.446 176.958C155.251 176.958 156.18 176.923 157.09 176.885V177.121C155.779 177.339 155.398 178.123 155.398 179.93V182.757H161.067V179.93C161.067 178.196 160.728 177.342 159.375 177.121V176.885C160.306 176.92 161.194 176.958 162.019 176.958C162.824 176.958 163.752 176.923 164.684 176.885V177.121C163.54 177.321 163.077 178.288 163.077 180.13V186.276C163.077 188.083 163.563 189.177 164.748 189.412Z" fill="white"/>
<path d="M169.504 189.412C170.668 189.194 171.175 188.08 171.175 186.076V180.44C171.175 178.689 170.963 177.377 169.569 177.121V176.885C170.394 176.92 171.326 176.958 172.233 176.958C173.165 176.958 174.032 176.923 174.919 176.885V177.121C173.439 177.377 173.206 178.615 173.206 180.44V186.639C173.206 187.897 173.418 189.191 175.11 189.191C175.936 189.191 176.381 189.065 176.908 188.699C177.542 188.242 178.306 187.367 178.707 186.329H178.981C179.001 187.37 178.981 188.481 178.916 189.648C177.032 189.592 175.553 189.592 174.052 189.592C172.655 189.592 171.219 189.592 169.504 189.648V189.412Z" fill="white"/>
<path d="M192.727 189.413V189.649C191.84 189.593 190.844 189.575 189.83 189.575C188.857 189.575 187.925 189.593 187.165 189.649V189.413C188.583 188.994 188.624 187.954 188.031 186.442L187.607 185.33H183.017L182.637 186.241C181.959 187.865 182.089 189.086 183.569 189.413V189.649C182.997 189.613 182.216 189.575 181.496 189.575C180.715 189.575 179.996 189.61 179.678 189.649V189.413C180.544 189.121 181.202 188.263 181.856 186.713L186.065 176.646H186.339L190.484 186.695C191.035 188.027 191.628 189.103 192.727 189.413ZM187.439 184.909L185.387 179.547L183.188 184.909H187.439Z" fill="white"/>
<path d="M193.784 189.067C193.719 188.082 193.678 187.133 193.678 186.075H193.952C194.863 187.861 195.983 189.485 197.589 189.485C198.857 189.485 199.662 188.536 199.662 187.225C199.662 183.614 193.887 183.779 193.887 179.911C193.887 177.795 195.644 176.666 197.97 176.666C198.922 176.666 200.062 176.866 201.141 177.432C201.206 178.29 201.206 179.183 201.183 180.295H200.929C199.597 178.199 198.751 177.014 197.439 177.014C196.507 177.014 195.768 177.597 195.768 178.874C195.768 182.576 201.858 182.52 201.858 186.387C201.858 188.43 200.186 189.851 197.268 189.851C195.791 189.851 194.459 189.503 193.784 189.067Z" fill="white"/>
<path d="M216.582 189.412V189.648C215.672 189.592 214.784 189.574 213.853 189.574C212.921 189.574 212.055 189.592 211.168 189.648V189.412C212.479 189.212 212.901 188.372 212.901 186.476V183.196H207.232V186.476C207.232 188.41 207.678 189.212 208.966 189.412V189.648C208.055 189.592 207.209 189.574 206.28 189.574C205.328 189.574 204.462 189.592 203.551 189.648V189.412C204.715 189.177 205.222 188.118 205.222 186.276V180.13C205.222 178.288 204.756 177.321 203.616 177.121V176.885C204.526 176.92 205.476 176.958 206.28 176.958C207.085 176.958 208.014 176.923 208.924 176.885V177.121C207.613 177.339 207.232 178.123 207.232 179.93V182.757H212.901V179.93C212.901 178.196 212.562 177.342 211.209 177.121V176.885C212.14 176.92 213.028 176.958 213.853 176.958C214.658 176.958 215.586 176.923 216.518 176.885V177.121C215.374 177.321 214.911 178.288 214.911 180.13V186.276C214.911 188.083 215.397 189.177 216.582 189.412Z" fill="white"/>
</svg>
