<svg width="324" height="256" viewBox="0 0 324 256" fill="none" xmlns="http://www.w3.org/2000/svg">
<rect width="324" height="256" fill="#009EB6"/>
<path d="M93.5204 92.6465C73.6953 92.6465 57.5625 108.779 57.5625 128.614C57.5625 128.614 57.6274 136.787 57.6274 136.824C57.6645 141.583 60.1786 147.14 65.2346 148.281C71.3575 149.673 76.8588 143.856 76.8588 137.993V124.606C76.8588 118.131 82.694 112.861 89.8559 112.861C97.0271 112.861 102.853 118.131 102.853 124.606C102.853 125.766 103.79 126.703 104.95 126.703H107.816C107.788 126.99 107.742 127.268 107.742 127.556C107.742 131.007 110.08 133.911 113.262 134.783C110.024 139.505 103.252 142.77 95.4129 142.77C94.2533 142.77 93.3163 143.707 93.3163 144.867C93.3163 146.027 94.2533 146.964 95.4129 146.964C108.688 146.964 119.496 138.698 119.496 128.539C119.496 128.391 119.478 128.252 119.45 128.113C119.227 124.986 116.648 122.509 113.466 122.509H106.879C105.766 114.717 98.5671 108.668 89.8559 108.668C80.3748 108.668 72.6655 115.821 72.6655 124.606V137.993C72.6655 141.184 70.0865 144.496 66.8952 144.385C60.2343 144.153 61.7465 132.529 61.7465 128.623C61.7465 111.099 75.996 96.8397 93.5111 96.8397C111.035 96.8397 125.285 111.089 125.285 128.614C125.285 146.138 111.035 160.397 93.5204 160.397C90.8578 160.397 88.2324 160.063 85.6813 159.413C85.8297 158.838 85.941 158.254 85.941 157.632C85.941 153.801 82.8239 150.684 78.9925 150.684C75.1611 150.684 72.044 153.801 72.044 157.632C72.044 161.464 75.1611 164.581 78.9925 164.581C80.616 164.581 82.091 163.996 83.2692 163.069C86.5811 164.052 90.0229 164.581 93.5204 164.581C113.345 164.581 129.478 148.448 129.478 128.614C129.478 108.779 113.345 92.6465 93.5204 92.6465ZM112.065 126.703H113.475C114.487 126.703 115.312 127.528 115.312 128.539C115.312 129.328 115.201 130.089 115.025 130.849C113.308 130.729 111.935 129.309 111.935 127.556C111.935 127.268 111.991 126.981 112.065 126.703ZM81.3581 159.033C81.1169 159.219 80.9221 159.451 80.7737 159.729C80.2913 160.146 79.6697 160.406 78.9925 160.406C77.4711 160.406 76.2372 159.163 76.2372 157.642C76.2372 156.12 77.4711 154.877 78.9925 154.877C80.5139 154.877 81.7571 156.12 81.7571 157.642C81.7478 158.152 81.5993 158.616 81.3581 159.033Z" fill="white"/>
<path d="M95.4609 126.443C96.8955 126.443 98.0584 125.28 98.0584 123.846C98.0584 122.411 96.8955 121.248 95.4609 121.248C94.0263 121.248 92.8633 122.411 92.8633 123.846C92.8633 125.28 94.0263 126.443 95.4609 126.443Z" fill="white"/>
<path d="M165.23 111.514C165.23 117.461 160.981 120.086 154.701 120.086H152.131V125.04C152.131 125.894 151.417 126.58 150.563 126.58H145.693C144.802 126.58 144.088 125.894 144.088 125.04V104.167C144.088 103.351 144.802 102.664 145.693 102.664H154.692C161.584 102.673 165.23 105.985 165.23 111.514ZM157.122 111.514C157.122 110.281 156.334 109.399 154.692 109.399H152.122V113.667H154.692C156.334 113.667 157.122 112.785 157.122 111.514Z" fill="white"/>
<path d="M183.99 120.162C184.88 120.162 185.595 120.849 185.595 121.665V125.051C185.595 125.905 184.88 126.591 183.99 126.591H169.564C168.673 126.591 167.959 125.905 167.959 125.051V104.178C167.959 103.361 168.673 102.675 169.564 102.675H183.665C184.519 102.675 185.233 103.361 185.233 104.178V107.592C185.233 108.408 184.519 109.095 183.665 109.095H175.993V111.757H182.524C183.415 111.757 184.129 112.444 184.129 113.26V115.755C184.129 116.609 183.415 117.295 182.524 117.295H175.993V120.162H183.99Z" fill="white"/>
<path d="M208.146 104.176V108.175C208.146 109.028 207.432 109.715 206.579 109.715H202.33V125.05C202.33 125.903 201.615 126.59 200.725 126.59H195.873C195.019 126.59 194.305 125.903 194.305 125.05V109.705H190.056C189.166 109.705 188.451 109.019 188.451 108.165V104.167C188.451 103.351 189.166 102.664 190.056 102.664H206.588C207.432 102.673 208.146 103.351 208.146 104.176Z" fill="white"/>
<path d="M157.402 149.484C157.856 149.122 158.441 149.057 158.923 149.354L163.386 152.165C164.007 152.564 164.146 153.427 163.627 153.955C161.307 156.377 157.949 157.833 154.071 157.833C146.798 157.833 141.297 152.666 141.297 145.847C141.297 138.992 146.798 133.824 154.071 133.824C157.949 133.824 161.307 135.318 163.627 137.73C164.146 138.259 164.007 139.121 163.386 139.483L158.923 142.331C158.441 142.628 157.847 142.563 157.402 142.201C156.539 141.469 155.398 141.079 154.081 141.079C151.177 141.079 149.062 143.064 149.062 145.847C149.062 148.63 151.177 150.616 154.081 150.616C155.389 150.606 156.53 150.207 157.402 149.484Z" fill="white"/>
<path d="M181.987 156.342L181.264 153.856H174.408L173.684 156.342C173.508 157.001 172.886 157.437 172.2 157.437H166.736C165.901 157.437 165.279 156.639 165.558 155.878L172.692 135.441C172.97 134.745 173.656 134.244 174.454 134.244H181.236C182.034 134.244 182.757 134.745 182.998 135.441L190.132 155.878C190.411 156.639 189.817 157.437 188.991 157.437H183.49C182.776 157.427 182.191 157.001 181.987 156.342ZM179.77 148.689L177.831 141.963L175.892 148.689H179.77Z" fill="white"/>
<path d="M206.07 156.602L202.712 150.247H200.531V155.943C200.531 156.769 199.836 157.437 199.01 157.437H194.307C193.444 157.437 192.748 156.778 192.748 155.943V135.701C192.748 134.903 193.444 134.244 194.307 134.244H202.999C209.716 134.244 213.241 137.194 213.241 142.556C213.241 145.506 211.998 147.529 209.818 148.781L214.178 156.101C214.521 156.695 214.076 157.428 213.38 157.428H207.461C206.858 157.428 206.311 157.103 206.07 156.602ZM200.531 144.319H202.99C204.613 144.319 205.374 143.753 205.374 142.566C205.374 141.341 204.613 140.775 202.99 140.775H200.531V144.319Z" fill="white"/>
<path d="M240.869 145.84C240.869 152.696 235.368 157.864 228.095 157.864C220.822 157.864 215.32 152.696 215.32 145.84C215.32 139.022 220.822 133.854 228.095 133.854C235.368 133.854 240.869 139.013 240.869 145.84ZM233.086 145.84C233.086 143.057 230.971 141.072 228.104 141.072C225.228 141.072 223.122 143.057 223.122 145.84C223.122 148.651 225.237 150.609 228.104 150.609C230.971 150.609 233.086 148.651 233.086 145.84Z" fill="white"/>
<path d="M259.739 134.244H264.442C265.305 134.244 266.001 134.903 266.001 135.701V155.934C266.001 156.76 265.305 157.428 264.442 157.428H259.98C259.358 157.428 258.765 157.094 258.421 156.602L251.362 145.701V155.934C251.362 156.76 250.666 157.428 249.803 157.428H245.1C244.237 157.428 243.578 156.769 243.578 155.934V135.701C243.578 134.903 244.237 134.244 245.1 134.244H249.562C250.183 134.244 250.777 134.541 251.12 135.07L258.217 145.97V135.701C258.217 134.912 258.876 134.244 259.739 134.244Z" fill="white"/>
</svg>
