<svg width="324" height="256" viewBox="0 0 324 256" fill="none" xmlns="http://www.w3.org/2000/svg">
<rect width="324" height="256" fill="#3B5163"/>
<path d="M156.481 120.182C156.463 120.159 156.435 120.126 156.398 120.081L156.358 120.033C153.187 116.219 151.026 112.348 149.772 109.772C149.541 109.338 149.36 108.907 149.237 108.504C149.178 108.308 149.219 108.093 149.348 107.931C149.478 107.767 149.682 107.667 149.899 107.664C151.919 107.631 153.858 107.594 155.665 107.553L155.754 107.551C155.878 107.548 155.947 107.546 155.957 107.546C156.049 107.546 156.131 107.443 156.131 107.325V99.7461C156.131 99.5872 155.983 99.5381 155.9 99.5233C155.447 99.5168 152.399 99.4545 148.083 99.348C147.731 99.3398 147.438 99.0826 147.405 98.7517C147.282 97.5377 147.215 96.3893 147.215 95.5161C147.215 95.1573 147.513 94.8673 147.893 94.8575C151.907 94.7412 154.841 94.6232 154.866 94.6232C155.084 94.6232 155.121 94.5364 155.135 94.4512C155.138 94.4119 155.146 94.348 155.162 94.2153C155.444 91.9528 155.623 89.4004 155.693 86.6284C155.754 81.9626 155.223 79.2102 153.973 77.7096C152.641 76.1811 151.147 75.5143 148.06 75.0752C144.998 74.5624 140.095 74.374 129.961 74.374C120.685 74.374 111.14 74.8049 106.276 75.0605C106.04 75.0736 105.911 75.0785 105.898 75.0785C105.786 75.0785 105.724 75.1358 105.724 75.2407C105.724 75.2784 105.724 75.28 105.668 76.0025C104.657 89.0023 104.326 95.9682 104.228 99.5233C104.043 108.701 104.587 115.289 105.206 117.744C106.025 120.944 107.441 122.7 109.797 123.441C111.874 124.112 115.016 124.112 118.054 124.112H118.989C122.564 124.112 126.879 123.627 128.296 123.467C128.562 123.437 128.699 123.423 128.775 123.414C128.847 123.391 129.032 123.321 129.015 123.208L129.014 123.183L128.39 113.251C128.372 113.144 128.301 113.034 128.152 113.034C128.044 113.034 125.468 113.031 123.393 112.795C121.8 112.59 121.142 111.958 120.672 111.303C120.213 110.775 119.988 109.961 119.849 108.314C119.833 108.128 119.903 107.942 120.039 107.808C120.17 107.677 120.355 107.603 120.547 107.603L120.581 107.605C122.533 107.657 125.955 107.715 131.029 107.78C131.355 107.785 131.632 107.997 131.702 108.296C132.207 110.434 132.955 112.361 133.871 113.87C138.016 120.382 144.661 124.466 144.727 124.506C144.753 124.52 144.781 124.538 144.807 124.56C144.836 124.561 144.892 124.561 144.987 124.546L156.466 120.628C156.514 120.61 156.558 120.574 156.58 120.472C156.586 120.439 156.596 120.408 156.607 120.377C156.596 120.348 156.568 120.297 156.519 120.233C156.506 120.218 156.493 120.2 156.481 120.182ZM129.721 99.3464C125.254 99.4103 122.179 99.4676 120.319 99.5217H120.298C120.115 99.5217 119.943 99.4562 119.811 99.3366C119.676 99.2137 119.599 99.04 119.599 98.8631V95.6308C119.599 95.2671 119.913 94.9705 120.298 94.9705C122.982 94.9705 127.04 94.9705 129.728 95.0295C129.918 95.0344 130.102 95.1114 130.229 95.2441C130.357 95.3768 130.424 95.5554 130.41 95.7356C130.372 96.2386 130.383 96.8218 130.396 97.4984C130.405 97.8719 130.411 98.2684 130.411 98.6862C130.411 99.0449 130.102 99.3398 129.721 99.3464ZM136.851 86.5956C135.67 86.648 133.924 86.6792 132.061 86.6792C131.088 86.6792 130.084 86.671 129.076 86.6546H120.547C120.359 86.6546 120.175 86.5809 120.044 86.4531C119.913 86.3253 119.841 86.15 119.848 85.9714C119.874 85.226 119.888 84.5379 119.902 83.9301C119.921 83.0651 119.936 82.3836 119.974 81.8921C120 81.553 120.29 81.2909 120.65 81.2794C121.188 81.263 121.925 81.2384 122.746 81.2122C125.002 81.1369 127.805 81.0435 128.963 81.0435C133.368 81.0435 135.477 81.1811 136.24 81.5169C137.371 82.0494 137.453 82.803 137.516 84.3217V85.9354C137.518 86.2893 137.225 86.5776 136.851 86.5956Z" fill="white"/>
<path d="M182.224 86.8438C182.209 86.8307 182.196 86.8159 182.184 86.8012C182.133 86.7324 181.988 86.6914 181.794 86.6914H172.541C172.237 86.6914 171.912 86.8913 171.873 87.101H171.871C171.766 87.6596 170.457 92.7973 168.991 96.3769C167.51 100.035 165.515 103.225 164.858 104.273C164.769 104.414 164.71 104.508 164.689 104.547C164.686 104.555 164.681 104.565 164.676 104.573C164.537 104.824 164.563 104.939 164.61 105.025C164.617 105.037 164.622 105.047 164.625 105.058L167.289 111.916C167.405 112.121 167.541 112.254 167.662 112.281C167.676 112.285 167.69 112.288 167.703 112.293C167.898 112.363 168.059 112.35 168.295 112.244C168.414 112.188 169.496 111.557 170.978 110.51C171.075 110.442 171.208 110.432 171.317 110.483C171.427 110.533 171.493 110.638 171.485 110.75C171.419 111.747 171.354 112.806 171.29 113.921C171.119 118.715 171.196 122.671 171.224 123.771L171.226 123.815C171.273 124.118 171.519 124.436 171.891 124.436H181.404C181.752 124.436 182.068 124.151 182.068 123.838L182.07 123.772C182.097 122.675 182.173 118.717 182.004 113.918C181.811 108.467 181.359 104.049 181.354 104.005C181.308 103.669 181.039 103.438 180.688 103.438H178.8C178.688 103.438 178.585 103.384 178.529 103.297C178.473 103.21 178.473 103.102 178.528 103.015C179.032 102.219 179.555 101.395 179.871 100.54C182.432 94.6174 182.461 87.3647 182.461 87.291C182.458 87.1419 182.371 86.9748 182.224 86.8438Z" fill="white"/>
<path d="M218.502 77.4748L218.425 77.4453C216.188 76.672 211.493 76.1969 204.068 75.9971C203.911 75.9922 203.782 75.884 203.765 75.7431L203.634 74.5685C203.633 74.5587 203.633 74.5505 203.633 74.5406C203.633 74.2425 203.334 74 202.969 74H183.683C183.4 74 183.064 74.231 183.016 74.575L182.887 75.7431C182.871 75.8857 182.739 75.9954 182.582 75.9971C176.373 76.1134 169.777 76.346 165.99 76.5246C165.615 76.5705 165.362 76.8113 165.362 77.1242C165.362 77.1635 165.352 77.2028 165.334 77.2389C165.316 77.3552 165.29 77.9122 165.492 80.5712C165.673 83.5233 166.05 84.2753 166.162 84.4359C166.167 84.4441 166.172 84.4506 166.176 84.4588C166.245 84.5817 166.45 84.7144 166.743 84.7144H179.905C180.049 84.7144 180.226 84.6554 180.42 84.544C180.52 84.4424 180.569 84.3032 180.569 84.1164V83.2678C180.569 83.253 180.57 83.2366 180.574 83.2219C180.574 83.2186 180.634 82.8861 180.634 82.5043C180.634 82.352 180.769 82.2275 180.936 82.2225C181.204 82.2144 181.529 82.2029 181.899 82.1898C184.089 82.1144 187.754 81.9866 191.372 81.9866H196.649C200.567 81.9866 201.963 82.1128 203.195 82.2225C204.073 82.2946 204.827 82.8697 204.909 83.5299L205.04 84.1524C205.086 84.4834 205.422 84.7144 205.705 84.7144H219.779C219.981 84.7144 220.212 84.6013 220.361 84.4326L220.366 84.4228C220.808 83.6708 221.138 82.5502 221.292 81.2642C221.709 78.697 220.151 78.1039 218.502 77.4748Z" fill="white"/>
<path d="M220.563 87.3968C220.558 87.3968 220.505 87.3952 220.407 87.3903C217.896 87.2854 211.157 87.043 202.84 87.043C194.465 87.043 187.718 87.2854 185.205 87.3903C185.109 87.3936 185.056 87.3968 185.051 87.3968C184.896 87.3968 184.72 87.4689 184.578 87.5885C184.461 87.7523 184.416 87.8867 184.443 87.985C184.448 88.003 184.452 88.021 184.452 88.039L184.842 94.7855C184.891 95.1033 185.21 95.3507 185.572 95.3507C185.584 95.3507 185.649 95.3491 185.762 95.3458C189.204 95.2475 192.306 95.1983 194.299 95.1754C194.381 95.1705 194.465 95.2033 194.524 95.2573C194.583 95.3098 194.617 95.3835 194.617 95.4588C194.617 96.0797 194.545 96.6351 194.409 97.0644C194.371 97.1823 194.255 97.2642 194.121 97.2691C191.409 97.3691 188.724 97.5214 186.141 97.7229C186.044 97.7311 185.975 97.736 185.936 97.7377C185.554 97.7803 185.299 98.0227 185.299 98.3389C185.299 98.5814 185.305 104.358 185.82 112.482C185.998 115.6 186.309 120.013 186.767 123.347C186.786 123.485 186.793 123.541 186.796 123.573C186.844 123.832 187.093 124.035 187.423 124.085C187.479 124.086 187.614 124.089 187.817 124.096C195.653 124.329 200.63 124.378 203.425 124.378C206.192 124.378 211.005 124.329 218.213 124.096C218.4 124.089 218.525 124.086 218.579 124.085C218.852 124.045 219.157 123.873 219.208 123.51C219.216 123.459 219.929 118.588 220.314 114.414L220.366 113.659C220.54 111.177 220.704 108.831 220.704 106.917C220.704 105.118 220.558 103.799 220.26 102.884C219.655 101.049 218.652 99.2187 215.445 98.2537C214.129 97.8163 212.193 97.4887 209.979 97.3265C209.876 97.3183 209.783 97.2659 209.732 97.1839C209.681 97.102 209.678 97.0021 209.725 96.9185C209.973 96.4729 210.161 95.9634 210.284 95.4031C210.314 95.2704 210.441 95.1754 210.592 95.1754C210.594 95.1754 210.595 95.1754 210.595 95.1754C215.88 95.2328 220.009 95.3507 220.05 95.3523C220.441 95.3523 220.722 95.1312 220.771 94.7773L221.225 88.0374C221.225 87.9244 221.159 87.7638 221.033 87.5885C220.894 87.4689 220.718 87.3968 220.563 87.3968ZM206.428 114.419C206.382 115.035 206.346 115.52 206.346 115.906C206.346 116.052 206.224 116.173 206.064 116.188C205.397 116.249 204.409 116.249 202.774 116.249C201.057 116.249 200.02 116.249 199.417 116.188C199.273 116.173 199.159 116.072 199.141 115.942C199.072 115.444 199.006 114.727 198.942 113.75C198.937 113.673 198.968 113.596 199.027 113.539C199.086 113.482 199.17 113.45 199.255 113.45H206.162C206.249 113.45 206.331 113.483 206.39 113.539C206.449 113.596 206.48 113.672 206.475 113.75C206.459 113.986 206.442 114.209 206.428 114.419ZM206.672 106.622C206.672 106.778 206.531 106.906 206.359 106.906H198.931C198.757 106.906 198.618 106.779 198.618 106.622C198.618 106.211 198.598 105.773 198.582 105.388C198.567 105.062 198.554 104.754 198.554 104.507C198.554 104.369 198.665 104.252 198.816 104.229C199.621 104.107 200.874 104.048 202.307 103.989C202.309 103.989 202.311 103.989 202.312 103.989C203.487 103.989 205.027 104.104 205.612 104.297C206.221 104.456 206.575 104.7 206.665 105.026C206.672 105.049 206.675 105.072 206.675 105.095V106.622H206.672Z" fill="white"/>
<path d="M106.211 140.972H113.883L113.991 142.66C109.605 142.691 106.506 142.712 106.491 142.712C106.093 142.712 105.744 142.909 105.744 143.133C105.744 143.161 105.744 146.254 106.142 151.146C106.491 155.785 106.84 154.534 106.84 154.534C106.889 154.758 107.189 154.927 107.587 154.927L144.104 154.983L153.97 154.927C154.368 154.927 154.668 154.758 154.717 154.534C154.717 154.506 155.315 154.239 155.515 151.708C155.764 148.7 155.913 146.506 155.715 145.466C155.566 144.707 155.366 143.667 152.874 143.076C152.016 142.868 150.83 142.722 149.183 142.627L149.29 140.97H156.898C157.397 140.97 157.835 140.633 157.835 140.181L158.148 133.986C158.148 133.76 158.086 133.536 157.897 133.367C157.71 133.198 157.522 133.085 157.209 133.085C157.176 133.085 154.15 133.041 149.273 132.997L149.127 131.645C149.127 131.282 148.67 130.969 148.149 130.969H137.781C137.26 130.969 136.803 131.282 136.803 131.645L136.665 132.923C135.025 132.918 133.328 132.917 131.585 132.917C129.841 132.917 128.144 132.92 126.504 132.923L126.367 131.645C126.367 131.282 125.91 130.969 125.389 130.969H115.02C114.499 130.969 114.042 131.282 114.042 131.645L113.896 132.997C109.04 133.041 106.024 133.085 105.96 133.085C105.71 133.085 105.461 133.198 105.272 133.367C105.085 133.536 105.021 133.762 105.021 133.986L105.272 140.181C105.336 140.635 105.711 140.972 106.211 140.972ZM120.51 149.594C120.51 149.689 120.51 149.83 120.51 149.925C119.935 149.925 119.32 149.925 118.708 149.925C117.787 149.925 116.943 149.925 116.139 149.925C116.139 149.313 116.101 148.651 116.101 148.226C116.562 148.131 117.291 148.086 118.134 148.038C118.824 148.038 119.707 148.133 120.013 148.274C120.282 148.369 120.474 148.51 120.511 148.698C120.51 148.887 120.51 149.216 120.51 149.594ZM132.948 149.594C132.948 149.689 132.948 149.83 132.948 149.925C132.373 149.925 131.758 149.925 131.146 149.925C130.225 149.925 129.381 149.925 128.577 149.925C128.577 149.313 128.539 148.651 128.539 148.226C128.999 148.131 129.728 148.086 130.572 148.038C131.262 148.038 132.145 148.133 132.451 148.274C132.72 148.369 132.912 148.51 132.949 148.698C132.948 148.887 132.948 149.216 132.948 149.594ZM145.386 149.594C145.386 149.689 145.386 149.83 145.386 149.925C144.81 149.925 144.196 149.925 143.583 149.925C142.663 149.925 141.819 149.925 141.015 149.925C141.015 149.313 140.977 148.651 140.977 148.226C141.437 148.131 142.166 148.086 143.01 148.038C143.7 148.038 144.583 148.133 144.889 148.274C145.158 148.369 145.349 148.51 145.387 148.698C145.386 148.887 145.386 149.216 145.386 149.594ZM136.642 140.972L136.74 142.512C133.821 142.528 130.171 142.551 126.426 142.576L126.527 140.974H136.642V140.972Z" fill="white"/>
<path d="M158.958 163.229C158.958 163.216 158.955 163.203 158.955 163.19C158.955 163.187 158.955 163.185 158.955 163.182L158.63 157.9C158.565 157.322 158.176 156.888 157.657 156.888H140.842H120.715H103.9C103.381 156.888 102.927 157.322 102.927 157.9L102.668 163.254C102.624 163.449 102.67 163.644 102.765 163.818C102.711 163.931 102.676 164.057 102.676 164.19L102.565 167.63C102.55 168.108 102.942 168.505 103.433 168.505H112.386C112.876 168.505 113.269 168.108 113.255 167.63L113.151 164.465C115.049 164.484 117.173 164.502 119.472 164.519C118.106 166.051 116.274 167.79 114.277 168.806C109.624 171.183 104.049 172.211 103.982 172.255C103.649 172.406 103.563 172.461 103.43 172.684C103.364 172.863 103.389 173.189 103.592 173.328L108.772 178.413C109.041 178.577 109.754 178.795 110.221 178.759C110.353 178.716 113.151 177.99 116.841 176.59C118.381 177.933 120.114 179.283 121.6 180.025C122.367 180.412 123.179 180.802 123.997 181.182C120.535 182.591 117.416 183.692 117.373 183.72C117.041 183.87 116.954 183.926 116.821 184.149C116.756 184.327 116.78 184.653 116.983 184.793L122.164 189.878C122.201 189.901 122.249 189.925 122.305 189.95C122.912 190.225 123.628 190.224 124.251 189.976C126.341 189.15 133.127 186.395 138.411 183.728C143.596 181.136 150.899 173.357 151.099 173.226C151.217 173.108 151.289 172.994 151.327 172.886C151.989 171.871 153.843 168.855 153.342 167.61C153.334 167.587 153.321 167.568 153.309 167.546H158.201C158.691 167.546 159.084 167.15 159.069 166.672L158.958 163.229ZM132.752 176.706C131.621 176.233 130.484 175.725 129.528 175.236C128.761 174.847 127.839 174.222 126.897 173.518C129.344 173.542 132.559 173.562 136.753 173.565C135.486 174.625 134.089 175.744 132.752 176.706ZM148.452 164.465L148.389 166.357C148.019 166.362 147.786 166.375 147.786 166.375H146.758H145.737H136.64H133.23H130.884C131.436 165.579 131.761 165.051 131.816 165.014C131.979 164.851 132.059 164.696 132.069 164.557C138.35 164.552 144.025 164.511 148.452 164.465Z" fill="white"/>
<path d="M198.186 131.97C196.907 130.713 194.741 130.63 193.347 131.783L169.261 146.921C167.184 148.738 166.073 151.272 166.215 153.877C166.215 153.892 166.217 153.905 166.217 153.919C167 169.386 167.783 181.418 167.783 181.418C167.895 182.168 168.566 182.73 169.461 182.73L195.082 182.919L217.236 182.73C218.131 182.73 218.803 182.168 218.914 181.418C218.914 181.325 220.256 164.231 220.705 155.794C220.751 154.981 220.793 154.188 220.836 153.412C220.962 151.077 220.084 148.788 218.383 147.022L198.186 131.97Z" fill="#5DA14E"/>
<path d="M190.616 151.143C190.616 150.556 190.657 149.978 190.735 149.409C190.883 148.354 189.724 147.539 188.612 147.892C182.534 149.822 178.22 155.124 178.433 161.308C178.677 168.392 184.97 174.215 192.817 174.605C199.176 174.921 204.746 171.721 207.357 166.967C207.885 166.005 207.084 164.896 205.894 164.898C205.886 164.898 205.878 164.898 205.87 164.898C197.446 164.899 190.616 158.74 190.616 151.143Z" fill="white"/>
</svg>
