<svg width="324" height="256" viewBox="0 0 324 256" fill="none" xmlns="http://www.w3.org/2000/svg">
<rect width="324" height="256" fill="white"/>
<path d="M137.723 116.003C137.723 102.436 148.798 91.3969 162.408 91.3969C176.018 91.3969 187.093 102.436 187.093 116.003V117.821C192.527 115.345 198.323 113.527 204.377 112.495C202.579 90.9713 184.454 74 162.408 74C140.285 74 122.121 91.0874 120.426 112.727C126.493 113.875 132.302 115.796 137.723 118.401V116.003Z" fill="#F29512"/>
<path d="M157.453 143.251C152.136 136.339 145.421 130.562 137.723 126.332C132.328 123.366 126.468 121.16 120.258 119.871C116.066 118.994 111.732 118.517 107.281 118.517V135.926C125.601 135.926 141.397 146.733 148.707 162.273C151.463 168.141 153.054 174.654 153.054 181.553C153.054 169.921 156.25 159.01 161.787 149.648C160.467 147.43 159.018 145.289 157.453 143.251Z" fill="#005A98"/>
<path d="M204.545 119.626C198.361 120.786 192.5 122.85 187.08 125.674C178.864 129.955 171.71 135.978 166.108 143.251C164.542 145.289 163.093 147.43 161.774 149.648C156.237 159.01 153.041 169.921 153.041 181.553H170.507C170.507 174.654 172.098 168.141 174.854 162.273C182.163 146.733 197.96 135.926 216.28 135.926V118.517C212.269 118.517 208.349 118.916 204.545 119.626Z" fill="#009B7E"/>
<path d="M162.408 126.926C168.152 126.926 172.809 122.284 172.809 116.558C172.809 110.832 168.152 106.189 162.408 106.189C156.663 106.189 152.006 110.832 152.006 116.558C152.006 122.284 156.663 126.926 162.408 126.926Z" fill="#E14148"/>
</svg>
