<svg width="324" height="256" viewBox="0 0 324 256" fill="none" xmlns="http://www.w3.org/2000/svg">
<rect width="324" height="256" fill="#EA5117"/>
<path d="M204.054 105.156L197.729 103.027C197.284 102.836 196.86 102.666 196.489 102.529C194.836 101.914 193.151 101.31 191.488 100.738C187.991 99.5405 184.378 98.4279 180.722 97.4213C178.614 91.1485 175.594 86.677 171.525 83.7737C169.12 82.0572 166.269 81.1035 163.493 81.1035C163.207 81.1035 162.921 81.1141 162.635 81.1353C159.414 81.3684 156.394 82.6823 153.671 85.0452C151.7 86.7512 150.015 88.9127 148.563 91.6041C143.647 91.1803 138.667 90.9578 133.708 90.9578C131.684 90.9578 129.639 90.9895 127.615 91.0637C127.605 91.0637 122.688 91.0637 122.688 91.0637C119.584 91.0637 117.072 93.575 117.072 96.6796V99.9855C117.072 102.709 119.011 104.976 121.586 105.495L124.797 124.981C124.956 125.956 125.178 127.27 125.761 128.637C125.252 129.686 124.956 130.841 124.924 132.07C124.892 133.236 125.062 134.719 125.75 136.287C124.956 139.371 125.772 141.787 126.471 143.153C128.209 146.502 132.532 151.047 150.057 152.086L150.005 153.622C149.952 155.148 150.524 156.621 151.583 157.712C152.643 158.804 154.095 159.429 155.62 159.429H183.859C185.554 159.429 187.154 158.666 188.214 157.352C189.284 156.038 189.697 154.311 189.347 152.658C188.531 148.748 187.663 145.251 186.73 142.147C187.059 142.189 187.387 142.221 187.726 142.221C188.86 142.221 189.994 141.946 191.021 141.426C192.123 140.886 193.056 140.091 193.745 139.085C193.755 139.074 193.755 139.063 193.766 139.063C197.284 134.189 200.039 128.298 201.956 121.527C202.19 120.701 202.402 119.874 202.603 119.058C202.974 118.963 203.345 118.825 203.705 118.645C205.04 117.988 206.057 116.822 206.534 115.403L207.583 112.277C208.579 109.331 207 106.152 204.054 105.156Z" fill="white"/>
<path d="M202.266 110.455L195.781 108.272C195.728 108.251 195.686 108.219 195.643 108.198C194.075 107.53 192.433 107 190.822 106.439C185.906 104.722 180.915 103.218 175.871 101.935C175.999 101.628 176.03 101.268 175.903 100.865C174.356 95.6096 171.305 88.5633 165.424 86.9845C159.236 85.3209 154.616 91.4772 152.465 96.3937C152.285 96.7964 152.232 97.2308 152.306 97.6335C151.776 97.5699 151.236 97.4957 150.706 97.4427C143.098 96.6586 135.448 96.4043 127.808 96.6692C127.798 96.6692 127.787 96.6692 127.766 96.6692H122.68V99.9752H126.356C127.215 105.167 128.073 110.359 128.931 115.551C129.398 118.38 129.853 121.22 130.33 124.049C130.722 126.359 131.39 128.097 133.901 128.478C145.238 130.237 156.587 131.89 167.935 133.607C174.388 134.582 180.852 135.546 187.304 136.521C188.025 136.627 188.724 136.404 189.127 135.842C189.159 135.811 189.191 135.779 189.222 135.737C192.602 131.043 194.976 125.533 196.555 119.991C196.989 118.444 197.36 116.886 197.657 115.308C197.816 114.428 198.028 113.474 198.081 112.531L201.217 113.591L202.266 110.455ZM184.761 107.986C184.74 108.039 184.719 108.081 184.698 108.123C183.67 111.408 182.632 114.682 181.604 117.967C178.001 117.119 174.399 116.304 170.775 115.551C171.273 112.224 171.781 108.897 172.279 105.559C172.332 105.188 172.279 104.828 172.163 104.5C176.083 105.432 179.983 106.492 183.829 107.678C184.147 107.784 184.444 107.89 184.761 107.986ZM186.955 133.056C184.867 132.738 182.791 132.431 180.703 132.113C181.763 128.733 182.822 125.363 183.893 121.983C186.499 122.608 189.095 123.265 191.681 123.933C190.441 127.143 188.873 130.227 186.955 133.056ZM177.312 131.604C174.261 131.148 171.209 130.682 168.158 130.227C168.433 130.015 168.634 129.729 168.687 129.379C169.217 125.882 169.736 122.386 170.266 118.889C173.71 119.62 177.143 120.394 180.576 121.199C179.495 124.674 178.404 128.139 177.312 131.604ZM153.45 128.012C151.278 127.684 149.095 127.355 146.923 127.027C146.754 122.831 146.552 118.635 146.319 114.449C148.799 114.841 151.278 115.265 153.747 115.7C153.578 119.8 153.472 123.901 153.45 128.012ZM156.83 128.425C156.841 124.388 156.947 120.341 157.117 116.304C160.412 116.908 163.697 117.543 166.971 118.211C166.452 121.633 165.943 125.056 165.424 128.468C165.35 128.966 165.445 129.453 165.678 129.845C162.722 129.4 159.766 128.955 156.82 128.51C156.82 128.489 156.83 128.457 156.83 128.425ZM165.244 102.995C166.653 103.271 168.062 103.567 169.471 103.885C169.238 104.086 169.058 104.351 169.005 104.669C168.497 108.07 167.977 111.482 167.469 114.884C164.078 114.195 160.677 113.538 157.265 112.923C157.456 109.204 157.71 105.485 158.038 101.776C160.454 102.126 162.849 102.518 165.244 102.995ZM164.724 90.2905C166.452 90.8203 167.946 92.3567 169.005 93.8401C170.573 96.0441 171.622 98.5341 172.428 101.098C166.822 99.7844 161.154 98.746 155.442 97.9937C156.968 94.5288 160.264 88.9342 164.724 90.2905ZM154.69 101.3C154.362 104.966 154.118 108.643 153.917 112.319C151.321 111.864 148.714 111.44 146.107 111.027C145.895 107.477 145.684 103.927 145.429 100.378C148.523 100.6 151.617 100.908 154.69 101.3ZM142.028 100.155C142.272 103.599 142.484 107.053 142.685 110.508C138.881 109.935 135.077 109.395 131.273 108.918H131.262C130.775 105.951 130.277 102.974 129.79 100.007C133.869 99.9116 137.959 99.954 142.028 100.155ZM135.596 125.321C135.246 125.268 134.208 125.299 133.996 125.077C133.858 124.918 133.763 124.028 133.721 123.774C133.223 121.167 132.852 118.539 132.417 115.933C132.227 114.746 132.025 113.559 131.835 112.383C135.533 112.849 139.22 113.379 142.907 113.941C143.14 118.137 143.331 122.333 143.511 126.518C142.187 126.317 140.852 126.115 139.527 125.914C138.213 125.723 136.899 125.522 135.596 125.321ZM194.669 112.616C194.541 114.163 194.149 115.731 193.779 117.236C193.492 118.412 193.153 119.578 192.793 120.733C190.165 120.055 187.538 119.398 184.91 118.751C185.927 115.509 186.944 112.277 187.972 109.035C189.689 109.607 191.384 110.211 193.079 110.836C194.319 111.292 194.785 111.186 194.669 112.616Z" fill="#EA5117"/>
<path d="M183.86 153.782C179.664 133.787 174.811 128.192 170.128 126.009C165.444 123.827 149.02 123.466 143.945 121.4C138.35 119.133 135.966 121.273 135.966 121.273C134.779 122.354 134.79 123.329 135.542 124.219L135.299 124.07C134.822 124.102 134.43 124.166 134.123 124.251C133.391 124.441 132.83 125.013 132.618 125.734C132.205 127.175 132.628 128.394 133.561 129.432L133.54 129.421C133.519 129.421 133.317 129.421 133.296 129.421C131.802 129.443 130.573 130.703 130.53 132.198C130.499 133.564 131.103 134.709 132.13 135.673L132.088 135.684C126.917 143.98 142.133 145.993 150.61 146.47C153.534 146.64 155.781 149.109 155.685 152.033L155.622 153.792H183.86V153.782Z" fill="white"/>
<path d="M157.444 153.845L153.799 153.718L153.863 151.959C153.927 150.009 152.454 148.388 150.515 148.282C138.838 147.615 131.887 145.294 129.853 141.374C129.132 139.986 128.676 137.707 130.552 134.698L133.646 136.627C132.48 138.492 132.947 139.392 133.095 139.689C134.409 142.232 141 144.076 150.716 144.637C154.658 144.86 157.646 148.134 157.508 152.086L157.444 153.845Z" fill="#EA5117"/>
<path d="M152.113 142.423C150.439 142.391 135.657 141.999 130.561 136.669C129.289 135.345 128.675 133.819 128.717 132.124C128.78 129.644 130.825 127.599 133.284 127.567H133.559V131.223H133.305C132.818 131.234 132.383 131.689 132.373 132.219C132.351 132.918 132.616 133.522 133.199 134.137C136.632 137.718 148.065 138.693 152.176 138.767L152.113 142.423Z" fill="#EA5117"/>
<path d="M153.311 136.944C151.531 136.838 135.764 135.747 131.696 130.015C130.678 128.574 130.392 126.921 130.869 125.225C131.25 123.89 132.31 122.831 133.656 122.47C134.111 122.343 134.631 122.269 135.192 122.227L135.415 125.872C135.097 125.893 134.821 125.935 134.599 125.988C134.493 126.02 134.408 126.105 134.376 126.211C134.196 126.846 134.281 127.344 134.662 127.895C136.972 131.148 147.452 132.928 153.513 133.289L153.311 136.944Z" fill="#EA5117"/>
<path d="M182.079 154.153C177.841 133.957 173.062 129.38 169.364 127.653C167.224 126.657 161.544 125.989 156.543 125.406C151.107 124.771 145.968 124.177 143.277 123.075C138.986 121.327 137.174 122.641 137.152 122.662C137.004 122.8 136.93 122.906 136.888 122.969C137.809 124.612 146.212 126.964 155.113 128.077L154.668 131.7C148.766 130.969 134.885 128.755 133.37 123.997C133.105 123.181 132.946 121.56 134.758 119.907C135.097 119.6 138.191 117.078 144.644 119.695C146.88 120.606 152.008 121.2 156.967 121.783C162.763 122.461 168.241 123.096 170.911 124.347C175.658 126.561 181.115 131.753 185.65 153.401L182.079 154.153Z" fill="#EA5117"/>
<path d="M144.04 77.1091L142.524 78.6879L136.771 73.1886L138.731 79.0906L137.343 80.5422L131.441 78.7621L137.195 84.2614L135.69 85.8296L127.658 78.1581L129.852 75.8694L135.775 77.5859L133.793 71.7582L136.008 69.4482L144.04 77.1091Z" fill="white"/>
<path d="M155.949 71.5894L153.862 72.5007L151.785 70.445L147.494 72.3099L147.589 75.2238L145.501 76.1351L145.184 64.1616L147.388 63.208L155.949 71.5894ZM150.09 68.7815L147.419 66.0901L147.462 69.9258L150.09 68.7815Z" fill="white"/>
<path d="M156.926 60.3351L162.012 60.0066C163.856 59.89 165.445 61.3311 165.583 63.588C165.561 65.5483 164.714 66.4913 163.665 67.2966L166.547 70.8568L163.898 71.0264L161.323 67.8476L159.479 67.9641L159.691 71.3019L157.625 71.429L156.926 60.3351ZM163.453 63.8105C163.4 62.9523 162.669 62.2847 161.842 62.3377L159.151 62.5072L159.352 65.686L162.044 65.5165C162.87 65.4635 163.506 64.69 163.453 63.8105Z" fill="white"/>
<path d="M175.372 66.3964L177.841 73.6016L175.224 72.8811L173.454 67.6573L171.07 69.2891L170.445 71.5778L168.357 71.0056L171.293 60.3037L173.38 60.8759L171.96 66.0573L177.862 62.0626L180.744 62.8467L175.372 66.3964Z" fill="white"/>
<path d="M190.591 71.2286L185.992 68.2088L184.837 69.9677L189.043 72.7226L187.825 74.5769L183.618 71.822L182.304 73.8246L186.903 76.8445L185.695 78.6988L179.316 74.5134L185.409 65.2207L191.788 69.4061L190.591 71.2286Z" fill="white"/>
<path d="M198.704 79.7469L196.871 77.6277L190.142 83.466L188.701 81.8131L195.43 75.9747L193.554 73.8131L195.218 72.3721L200.367 78.2952L198.704 79.7469Z" fill="white"/>
<path d="M104.941 186.42C105.704 186.42 106.488 186.367 107.293 186.251C108.098 186.134 108.776 185.975 109.327 185.763V189.122C108.798 189.345 108.098 189.525 107.219 189.631C106.339 189.748 105.47 189.801 104.602 189.801H100.289V171.713H103.923V186.42H104.941ZM118.694 171.311V190.722H115.208V182.087H113.64V190.383H110.207V171.406H113.651V178.452H115.219V171.311H118.694Z" fill="white"/>
<path d="M139.992 180.985V184.142H120.951V180.985H128.601V178.346H132.352V180.985H139.992ZM130.382 176.174C129.29 177.234 127.976 178.082 126.429 178.696C124.882 179.321 123.24 179.639 121.502 179.671V176.397C122.71 176.354 123.865 176.09 124.988 175.613C126.101 175.136 127.044 174.479 127.807 173.631C128.57 172.794 129.046 171.83 129.237 170.76L133.009 171.396C132.85 172.211 132.596 172.953 132.257 173.599L139.907 176.852L138.477 179.788L130.382 176.174ZM125.836 187.512H139.113V190.712H122.053V185.011H125.847V187.512H125.836Z" fill="white"/>
<path d="M153.121 180.211C152.612 181.091 151.903 181.769 150.97 182.246C150.048 182.722 148.978 182.966 147.77 182.966C146.562 182.966 145.503 182.722 144.57 182.246C143.648 181.769 142.928 181.091 142.419 180.211C141.911 179.332 141.656 178.314 141.656 177.138C141.656 175.983 141.911 174.966 142.43 174.097C142.949 173.218 143.659 172.54 144.581 172.052C145.503 171.565 146.562 171.321 147.77 171.321C148.978 171.321 150.038 171.565 150.96 172.052C151.881 172.54 152.591 173.218 153.11 174.097C153.63 174.977 153.884 175.994 153.884 177.138C153.884 178.314 153.63 179.342 153.121 180.211ZM147.007 187.257H159.881V190.712H143.214V183.92H147.007V187.257ZM146.032 179.067C146.477 179.533 147.05 179.756 147.77 179.756C148.491 179.756 149.073 179.522 149.508 179.067C149.953 178.601 150.165 177.965 150.165 177.149C150.165 176.333 149.942 175.687 149.508 175.231C149.063 174.765 148.491 174.542 147.77 174.542C147.05 174.542 146.467 174.775 146.032 175.231C145.587 175.697 145.375 176.333 145.375 177.149C145.375 177.965 145.598 178.611 146.032 179.067ZM161.82 175.167V178.897H159.616V185.668H155.887V171.311H159.616V175.178H161.82V175.167Z" fill="white"/>
<path d="M174.164 189.589C173.253 189.737 172.31 189.801 171.346 189.801H162.922V186.208H171.494C172.437 186.208 173.338 186.145 174.217 186.018C175.097 185.891 175.807 185.7 176.368 185.435V188.985C175.817 189.25 175.075 189.451 174.164 189.589ZM172.543 172.222C173.444 172.741 174.154 173.483 174.673 174.436C175.192 175.39 175.446 176.492 175.446 177.732C175.446 178.971 175.192 180.073 174.673 181.027C174.154 181.981 173.454 182.722 172.543 183.242C171.642 183.761 170.604 184.026 169.449 184.026C168.283 184.026 167.256 183.761 166.344 183.242C165.433 182.722 164.723 181.981 164.204 181.027C163.685 180.073 163.43 178.971 163.43 177.732C163.43 176.492 163.685 175.39 164.204 174.436C164.723 173.483 165.433 172.741 166.344 172.222C167.256 171.703 168.294 171.438 169.449 171.438C170.615 171.438 171.642 171.703 172.543 172.222ZM167.679 175.687C167.234 176.227 167.023 176.916 167.023 177.742C167.023 178.59 167.245 179.279 167.679 179.809C168.124 180.338 168.707 180.603 169.438 180.603C170.17 180.603 170.763 180.338 171.197 179.798C171.642 179.258 171.854 178.579 171.854 177.742C171.854 176.905 171.632 176.227 171.197 175.687C170.752 175.146 170.17 174.881 169.438 174.881C168.718 174.871 168.124 175.146 167.679 175.687ZM181.179 190.712H177.449V171.311H181.179V190.712Z" fill="white"/>
<path d="M184.547 171.766H195.503V189.811H184.547V171.766ZM188.277 186.24H191.784V175.326H188.277V186.24ZM203.8 182.129H201.596V190.722H197.866V171.311H201.596V178.399H203.8V182.129Z" fill="white"/>
<path d="M210.171 182.828C208.761 183.665 207.077 184.079 205.127 184.079V180.847C206.261 180.836 207.183 180.688 207.903 180.412C208.624 180.137 209.175 179.713 209.556 179.141H205.127V176.026H210.351V175.708V174.712H205.127V171.533H213.794V175.697V175.718H215.426V171.395H218.87V182.15H215.426V179.215H213.201C212.587 180.794 211.58 181.991 210.171 182.828ZM223.288 190.945L214.801 187.766C213.71 188.73 212.417 189.472 210.912 189.97C209.408 190.468 207.818 190.722 206.144 190.722V187.13C207.394 187.13 208.56 186.95 209.641 186.579C210.722 186.219 211.633 185.689 212.364 185.011C213.095 184.333 213.593 183.517 213.837 182.574L217.567 183.326C217.418 183.93 217.196 184.513 216.91 185.053L224.518 187.554L223.288 190.945ZM223.638 185.011H220.152V171.311H223.638V185.011Z" fill="white"/>
<path d="M119.15 196.337H122.16V197.005H119.966V198.721C121.238 198.711 121.948 198.679 122.753 198.509L122.838 199.166C121.969 199.347 121.174 199.389 119.701 199.389H119.15V196.337ZM121.99 199.951C123.378 199.951 124.247 200.449 124.247 201.286C124.247 202.123 123.378 202.621 121.99 202.621C120.602 202.621 119.733 202.123 119.733 201.286C119.733 200.449 120.613 199.951 121.99 199.951ZM121.99 201.974C122.912 201.974 123.442 201.731 123.442 201.286C123.442 200.83 122.912 200.597 121.99 200.597C121.068 200.597 120.528 200.819 120.528 201.286C120.528 201.731 121.068 201.974 121.99 201.974ZM124.183 195.871V197.535H125.105V198.213H124.183V199.823H123.357V195.871H124.183Z" fill="white"/>
<path d="M127.944 196.909V196.242H128.771V196.909C128.771 197.842 129.322 198.743 130.392 199.103L129.979 199.749C129.216 199.474 128.675 198.933 128.379 198.234C128.082 198.976 127.52 199.569 126.726 199.866L126.312 199.209C127.383 198.827 127.944 197.874 127.944 196.909ZM127.436 200.332H128.252V201.826H132.056V202.483H127.436V200.332ZM131.854 195.871V200.798H131.038V195.871H131.854Z" fill="white"/>
<path d="M135.649 196.359C136.666 196.359 137.397 197.281 137.397 198.743C137.397 200.206 136.666 201.149 135.649 201.149C134.632 201.149 133.9 200.216 133.9 198.743C133.9 197.281 134.632 196.359 135.649 196.359ZM135.649 200.396C136.221 200.396 136.613 199.792 136.613 198.743C136.613 197.705 136.221 197.101 135.649 197.101C135.077 197.101 134.695 197.705 134.695 198.743C134.695 199.792 135.077 200.396 135.649 200.396ZM139.262 195.861V202.643H138.435V195.861H139.262Z" fill="white"/>
<path d="M144.475 198.52V196.931H143.892V196.295H147.516V196.931H146.933V198.425C147.23 198.404 147.526 198.382 147.802 198.34L147.844 198.923C146.499 199.135 144.962 199.177 143.786 199.177L143.701 198.52H144.475ZM144.687 199.643H149.19V201.381H145.513V201.932H149.402V202.578H144.697V200.798H148.374V200.29H144.687V199.643ZM146.138 198.478V196.931H145.269V198.499C145.555 198.499 145.842 198.478 146.138 198.478ZM149.19 195.871V199.347H148.374V195.871H149.19Z" fill="white"/>
<path d="M152.412 201.138V199.411C151.882 199.104 151.564 198.627 151.564 198.023C151.564 196.932 152.613 196.232 154.054 196.232C155.506 196.232 156.544 196.932 156.544 198.023C156.544 198.617 156.227 199.093 155.697 199.411V201.138H157.106V201.795H150.992V201.138H152.412ZM154.054 199.157C155.05 199.157 155.75 198.722 155.75 198.013C155.75 197.303 155.05 196.868 154.054 196.868C153.048 196.868 152.359 197.303 152.359 198.013C152.359 198.722 153.048 199.157 154.054 199.157ZM154.881 201.138V199.708C154.627 199.761 154.351 199.793 154.054 199.793C153.758 199.793 153.482 199.761 153.228 199.708V201.138H154.881Z" fill="white"/>
<path d="M161.047 201.169V200.046H159.129V197.842H162.996V196.973H159.118V196.316H163.802V198.478H159.945V199.379H163.96V200.036H161.862V201.159H164.522V201.816H158.408V201.159H161.047V201.169Z" fill="white"/>
<path d="M165.762 196.899H167.351V195.966H168.178V196.899H169.725V197.556H165.762V196.899ZM167.775 198.022C168.75 198.022 169.449 198.679 169.449 199.601C169.449 200.533 168.739 201.19 167.775 201.19C166.811 201.19 166.09 200.533 166.09 199.601C166.08 198.668 166.8 198.022 167.775 198.022ZM167.775 200.523C168.294 200.523 168.676 200.162 168.676 199.601C168.676 199.05 168.294 198.69 167.775 198.69C167.245 198.69 166.874 199.05 166.874 199.601C166.864 200.162 167.235 200.523 167.775 200.523ZM171.06 195.871V198.573H172.088V199.251H171.06V202.631H170.244V195.871H171.06Z" fill="white"/>
<path d="M173.199 199.23H179.313V199.887H173.199V199.23ZM173.941 200.47H174.757V201.816H178.677V202.473H173.941V200.47ZM174.799 196.115V197.789H178.635V198.436H173.994V196.115H174.799Z" fill="white"/>
<path d="M185.754 201.138V199.644H183.784V196.391H188.531V199.644H186.56V201.138H189.219V201.795H183.105V201.138H185.754ZM187.736 198.997V197.037H184.589V198.997H187.736Z" fill="white"/>
<path d="M196.628 199.24V199.897H190.514V199.24H196.628ZM191.266 200.491H192.082V201.836H195.992V202.493H191.266V200.491ZM191.277 196.136H195.886V196.793H192.082V197.948H195.939V198.615H191.266V196.136H191.277Z" fill="white"/>
<path d="M200.505 197.047H198.343V196.39H201.384C201.384 198.192 200.346 199.41 198.354 200.046L198.004 199.41C199.562 198.933 200.367 198.107 200.505 197.047ZM200.886 200.12V199.855H201.691V200.12C201.691 200.968 202.528 201.741 203.863 201.964L203.535 202.6C202.497 202.409 201.691 201.911 201.289 201.211C200.886 201.921 200.081 202.419 199.032 202.61L198.714 201.964C200.038 201.741 200.886 200.978 200.886 200.12ZM203.524 195.871V200.396H202.709V198.382H201.416V197.715H202.709V195.871H203.524Z" fill="white"/>
</svg>
