<svg width="324" height="256" viewBox="0 0 324 256" fill="none" xmlns="http://www.w3.org/2000/svg">
<rect width="324" height="256" fill="#004835"/>
<g clip-path="url(#clip0_205_783)">
<path d="M136.223 126.168C133.983 127.593 131.672 127.695 130.704 127.573L131.264 123.347C131.712 123.419 132.629 123.327 133.789 122.594C135.378 121.535 136.101 120.659 136.65 119.01C136.773 118.592 136.925 117.93 136.976 117.177C136.997 116.474 136.813 115.965 136.589 115.65C136.284 115.13 135.571 114.825 134.899 115.008C134.319 115.181 133.525 115.894 131.437 118.205L130.348 119.407C129.513 120.323 128.76 120.954 127.894 121.433C126.947 121.932 126.041 122.197 125.756 122.237C123.832 122.573 121.215 121.677 120.013 120.232C118.221 118.185 118.211 115.344 118.975 113.298C119.637 111.557 121.082 109.184 123.475 107.647C124.33 107.066 125.196 106.649 126.01 106.445L127.008 110.65C126.703 110.742 126.336 110.946 125.888 111.251C124.371 112.229 123.516 113.542 122.997 114.815C122.671 115.741 122.569 116.719 123.333 117.472C123.607 117.747 124.137 118.093 124.901 117.981C125.216 117.92 125.593 117.829 125.909 117.605C126.245 117.391 126.469 117.157 127.12 116.474L128.169 115.354C130.938 112.371 132.415 111.404 133.626 110.956C135.398 110.284 137.984 110.65 139.797 112.89C140.642 113.919 141.334 115.477 141.304 117.36C141.232 118.358 141.069 119.692 140.693 120.649C139.878 122.991 138.402 124.732 136.233 126.157L136.223 126.168Z" fill="white"/>
<path d="M143.502 90.633C149.499 88.1181 155.527 90.9893 157.869 96.569C160.221 102.169 158.042 108.461 152.045 110.987C146.048 113.501 140.03 110.651 137.678 105.051C135.336 99.481 137.505 93.1581 143.502 90.633ZM153.898 98.2287C152.462 94.8076 148.949 93.0766 145.192 94.6548C141.405 96.2432 140.213 99.9596 141.649 103.381C143.095 106.822 146.587 108.573 150.365 106.985C154.122 105.407 155.344 101.68 153.898 98.2389V98.2287Z" fill="white"/>
<path d="M168.061 86.7129L174.975 88.9631C180.616 90.806 183.721 96.9151 181.868 102.576C180.025 108.237 173.906 111.353 168.265 109.51L161.352 107.26L168.051 86.7129H168.061ZM177.704 101.222C178.803 97.8315 176.909 94.1864 173.549 93.0867L170.861 92.2111L166.87 104.47L169.558 105.346C172.918 106.445 176.604 104.613 177.714 101.222H177.704Z" fill="white"/>
<path d="M201.652 108.4C205.215 113.837 203.474 120.293 198.414 123.602C193.333 126.931 186.745 125.923 183.192 120.486C179.638 115.049 181.349 108.614 186.43 105.285C191.49 101.975 198.098 102.963 201.652 108.4ZM196.062 119.997C199.157 117.971 200.236 114.194 198.007 110.783C195.756 107.351 191.887 106.853 188.792 108.879C185.666 110.925 184.577 114.672 186.827 118.104C189.057 121.514 192.946 122.034 196.072 119.987L196.062 119.997Z" fill="white"/>
<path d="M173.927 134.455C172.909 134.455 171.829 134.353 170.669 134.109C168.948 133.753 167.339 132.857 165.995 131.533C163.592 132.185 160.884 132.246 158.002 131.462C148.309 128.815 146.283 119.264 146.568 114.58L150.631 114.814C150.61 115.232 150.183 125.108 159.072 127.532C160.619 127.949 162.075 128.041 163.399 127.878C163.063 127.175 162.768 126.422 162.533 125.628C161.322 121.555 161.892 117.706 164.03 115.588C164.977 114.641 167.125 113.226 170.771 114.336C174.548 115.486 176.32 118.938 175.169 122.909C174.416 125.505 172.634 127.919 170.149 129.609C170.567 129.833 171.015 130.006 171.493 130.108C178.387 131.533 181.675 126.401 181.706 126.35L185.158 128.509C184.984 128.784 181.36 134.445 173.927 134.445V134.455ZM168.235 118.012C167.675 118.012 167.227 118.174 166.912 118.49C165.914 119.488 165.72 122.003 166.453 124.477C166.657 125.159 166.942 125.882 167.319 126.564C169.376 125.353 170.781 123.52 171.269 121.799C171.809 119.946 171.239 118.755 169.589 118.246C169.08 118.093 168.632 118.012 168.235 118.012Z" fill="white"/>
<path d="M161.82 152.05C131.366 152.05 106.594 134.099 106.594 112.025C106.594 89.9507 131.366 72 161.82 72C192.274 72 217.047 89.9507 217.047 112.025C217.047 134.099 192.274 152.05 161.82 152.05ZM161.82 76.0117C133.576 76.0117 110.595 92.1703 110.595 112.025C110.595 131.88 133.576 148.038 161.82 148.038C190.065 148.038 213.045 131.88 213.045 112.025C213.045 92.1703 190.065 76.0117 161.82 76.0117Z" fill="white"/>
<path d="M78.1457 182.382C75.8751 181.028 74.7653 178.991 74.4395 178.116L78.1457 176.761C78.2882 177.26 78.8278 178.146 80.0904 178.91C81.801 179.908 82.9413 180.152 84.713 179.908C85.1813 179.816 85.8941 179.643 86.5966 179.348C87.2788 178.991 87.6861 178.584 87.9203 178.136C88.3275 177.433 88.2461 176.517 87.6861 175.957C87.2483 175.458 86.2097 175.041 83.0941 174.165L81.5362 173.727C80.3246 173.371 79.4184 172.964 78.5937 172.434C77.7078 171.813 77.0664 171.11 76.8831 170.876C75.702 169.38 75.2031 166.753 76.0278 164.838C77.0867 162.273 79.6831 161.071 81.7704 160.837C83.593 160.633 86.3624 160.837 88.8061 162.313C89.6614 162.782 90.3639 163.281 90.8934 163.902L87.8897 166.518C87.6555 166.284 87.3297 166.02 86.8308 165.755C85.2424 164.808 83.6235 164.635 82.2388 164.757C81.1799 164.9 80.1515 165.256 79.7035 166.406C79.4693 166.966 79.4999 167.7 79.9682 168.382C80.2024 168.677 80.4671 168.972 80.8846 169.206C81.2919 169.471 81.6788 169.614 82.5646 169.889L84.0613 170.326C88.0017 171.446 89.5392 172.332 90.5065 173.238C91.8607 174.47 92.7465 176.945 91.5654 179.602C91.0054 180.865 89.9159 182.137 88.3275 182.932C87.4112 183.339 86.1181 183.817 85.0897 183.899C82.6155 184.225 80.406 183.726 78.1457 182.402V182.382Z" fill="white"/>
<path d="M105.178 161.092C111.775 161.092 116.306 166.183 116.306 172.363C116.306 178.544 111.775 183.634 105.178 183.634C98.5798 183.634 94.0488 178.574 94.0488 172.363C94.0488 166.152 98.5798 161.092 105.178 161.092ZM112.325 172.373C112.325 168.341 109.525 165.134 105.167 165.134C100.81 165.134 98.0096 168.341 98.0096 172.373C98.0096 176.405 100.81 179.643 105.167 179.643C109.525 179.643 112.325 176.436 112.325 172.373Z" fill="white"/>
<path d="M119.393 161.326H126.581C132.649 161.326 137.588 166.274 137.588 172.363C137.588 178.452 132.639 183.4 126.581 183.4H119.393V161.315V161.326ZM133.525 172.373C133.525 168.483 130.348 165.368 126.489 165.368H123.425V179.378H126.489C130.348 179.378 133.525 176.262 133.525 172.373Z" fill="white"/>
<path d="M150.488 161.092C157.086 161.092 161.617 166.183 161.617 172.363C161.617 178.544 157.086 183.634 150.488 183.634C143.89 183.634 139.359 178.574 139.359 172.363C139.359 166.152 143.89 161.092 150.488 161.092ZM157.646 172.373C157.646 168.341 154.846 165.134 150.488 165.134C146.13 165.134 143.33 168.341 143.33 172.373C143.33 176.405 146.13 179.643 150.488 179.643C154.846 179.643 157.646 176.436 157.646 172.373Z" fill="white"/>
<path d="M188.558 183.411H184.495V167.272L178.345 178.523H174.67L168.723 167.272V183.411H164.691V161.326H170.373L176.614 172.842L182.825 161.326H188.568V183.411H188.558Z" fill="white"/>
<path d="M214.553 183.411H210.348L208.047 177.841H198.242L195.941 183.411H191.705L200.92 161.326H205.339L214.553 183.411ZM206.398 173.901L203.251 166.163L199.922 173.901H206.398Z" fill="white"/>
<path d="M221.415 179.429H231.862V183.4H217.373V161.315H221.405V179.419L221.415 179.429Z" fill="white"/>
<path d="M238.755 179.429H249.202V183.4H234.713V161.315H238.745V179.419L238.755 179.429Z" fill="white"/>
</g>
<defs>
<clipPath id="clip0_205_783">
<rect width="174.772" height="111.97" fill="white" transform="translate(74.4395 72)"/>
</clipPath>
</defs>
</svg>
