<svg width="324" height="256" viewBox="0 0 324 256" fill="none" xmlns="http://www.w3.org/2000/svg">
<rect width="324" height="256" fill="#010100"/>
<path d="M136.584 98.6191V109.843C136.584 110.448 136.347 111.023 135.92 111.45L135.546 111.824C135.119 112.251 134.544 112.488 133.939 112.488H122.709V154.049H136.584V115.134C136.584 114.529 136.822 113.954 137.249 113.527L137.622 113.153C138.049 112.726 138.625 112.488 139.23 112.488H150.454V98.6191H136.584Z" fill="white"/>
<path d="M178.204 112.494V98.6191H164.328V109.843C164.328 110.448 164.091 111.023 163.664 111.45L163.29 111.824C162.863 112.251 162.288 112.488 161.683 112.488H150.459V154.049H164.334V115.134C164.334 114.529 164.572 113.954 164.999 113.527L165.372 113.153C165.799 112.726 166.375 112.488 166.98 112.488H178.204V112.494Z" fill="white"/>
<path d="M115.184 140.208V126.333H101.308V140.208H115.184Z" fill="white"/>
<path d="M115.188 112.494V98.6191H78.7825L64.8301 112.572V140.103L78.7825 154.055H101.313V140.18H78.7054V112.494H115.188Z" fill="white"/>
<path d="M237.866 123.535C237.866 123.144 237.765 122.758 237.581 122.414L237.587 122.408L237.54 122.325C237.54 122.325 237.54 122.325 237.54 122.319L237.468 122.189L237.456 122.201C237.023 121.554 236.306 121.151 235.529 121.127V121.121H235.451H235.374V121.127C234.597 121.151 233.879 121.554 233.446 122.201L233.44 122.195L233.363 122.325L233.316 122.408L233.322 122.414C233.138 122.758 233.043 123.144 233.043 123.535C233.043 123.927 233.144 124.313 233.322 124.657L233.316 124.663L233.363 124.746L233.44 124.876L233.446 124.87C233.879 125.517 234.597 125.92 235.374 125.944V125.95H235.451H235.529V125.944C236.306 125.92 237.023 125.517 237.456 124.87L237.462 124.876L237.54 124.746L237.587 124.663L237.581 124.657C237.765 124.313 237.866 123.927 237.866 123.535ZM233.512 124.496C233.363 124.2 233.286 123.868 233.286 123.535C233.286 123.203 233.363 122.877 233.512 122.58C233.535 122.598 233.565 122.616 233.589 122.628C233.618 122.646 233.648 122.669 233.678 122.687C233.737 122.723 233.796 122.758 233.862 122.788C233.891 122.8 233.921 122.818 233.951 122.83C234.045 122.871 234.146 122.913 234.253 122.948C234.277 122.954 234.307 122.96 234.33 122.972C234.396 122.99 234.467 123.013 234.538 123.031C234.526 123.191 234.52 123.363 234.52 123.541C234.52 123.719 234.526 123.885 234.538 124.052C234.467 124.069 234.401 124.087 234.33 124.105C234.307 124.111 234.277 124.117 234.253 124.129C234.146 124.164 234.045 124.2 233.951 124.247C233.921 124.259 233.891 124.277 233.862 124.289C233.796 124.319 233.731 124.354 233.678 124.39C233.648 124.407 233.618 124.431 233.589 124.449C233.559 124.461 233.535 124.479 233.512 124.496ZM237.397 122.58C237.545 122.877 237.623 123.209 237.623 123.535C237.623 123.862 237.545 124.194 237.397 124.496C237.373 124.479 237.344 124.461 237.32 124.443C237.29 124.425 237.267 124.407 237.237 124.39C237.178 124.354 237.112 124.319 237.041 124.283C237.012 124.271 236.988 124.253 236.958 124.241C236.863 124.2 236.756 124.158 236.65 124.123C236.626 124.117 236.602 124.111 236.579 124.105C236.507 124.087 236.442 124.063 236.371 124.046C236.383 123.88 236.389 123.713 236.389 123.535C236.389 123.363 236.383 123.191 236.371 123.025C236.442 123.008 236.513 122.99 236.579 122.966C236.602 122.96 236.626 122.954 236.65 122.948C236.756 122.913 236.857 122.877 236.958 122.83C236.988 122.818 237.012 122.8 237.041 122.788C237.106 122.752 237.172 122.723 237.231 122.681C237.261 122.663 237.29 122.646 237.32 122.622C237.344 122.61 237.373 122.598 237.397 122.58ZM234.787 123.073C234.805 123.079 234.829 123.073 234.846 123.079C235.042 123.108 235.25 123.126 235.457 123.126C235.665 123.126 235.867 123.108 236.068 123.079C236.086 123.079 236.11 123.079 236.128 123.073C236.14 123.227 236.151 123.381 236.151 123.535C236.151 123.69 236.14 123.844 236.128 123.998C236.104 123.992 236.08 123.998 236.057 123.992C235.867 123.963 235.671 123.945 235.475 123.945C235.463 123.945 235.451 123.945 235.44 123.945C235.244 123.945 235.048 123.963 234.858 123.992C234.834 123.998 234.811 123.992 234.787 123.998C234.775 123.844 234.763 123.69 234.763 123.535C234.763 123.381 234.775 123.227 234.787 123.073ZM235.546 121.394C235.564 121.406 235.582 121.424 235.606 121.435C235.618 121.447 235.629 121.453 235.647 121.465C235.671 121.489 235.695 121.519 235.718 121.554C235.724 121.566 235.736 121.578 235.742 121.59C235.766 121.625 235.79 121.667 235.813 121.714C235.819 121.732 235.831 121.744 235.837 121.762C235.861 121.809 235.879 121.857 235.896 121.91C235.902 121.934 235.914 121.952 235.92 121.975C235.938 122.029 235.956 122.082 235.973 122.141C235.985 122.171 235.991 122.201 235.997 122.236C236.009 122.296 236.027 122.355 236.039 122.414C236.045 122.456 236.056 122.491 236.062 122.533C236.074 122.598 236.086 122.663 236.092 122.735C236.098 122.764 236.098 122.794 236.104 122.824C236.086 122.83 236.062 122.83 236.045 122.83C235.855 122.859 235.659 122.877 235.457 122.877H235.451C235.256 122.877 235.06 122.859 234.864 122.83C234.846 122.83 234.823 122.824 234.805 122.824C234.811 122.794 234.811 122.764 234.817 122.735C234.829 122.663 234.834 122.598 234.846 122.533C234.852 122.491 234.864 122.456 234.87 122.414C234.882 122.355 234.894 122.29 234.912 122.236C234.918 122.207 234.929 122.177 234.935 122.141C234.953 122.082 234.971 122.029 234.989 121.975C234.995 121.952 235.007 121.934 235.012 121.91C235.03 121.857 235.054 121.803 235.072 121.762C235.078 121.744 235.09 121.732 235.095 121.714C235.119 121.673 235.143 121.625 235.167 121.59C235.173 121.578 235.184 121.566 235.19 121.554C235.214 121.524 235.238 121.489 235.262 121.465C235.273 121.453 235.285 121.447 235.303 121.435C235.321 121.418 235.339 121.4 235.362 121.394C235.392 121.376 235.428 121.37 235.457 121.37C235.487 121.37 235.517 121.376 235.546 121.394ZM235.362 125.677C235.345 125.665 235.327 125.647 235.303 125.635C235.291 125.624 235.279 125.618 235.262 125.606C235.238 125.582 235.214 125.552 235.19 125.517C235.184 125.505 235.173 125.493 235.167 125.481C235.143 125.446 235.119 125.404 235.095 125.357C235.09 125.339 235.078 125.327 235.072 125.309C235.048 125.262 235.03 125.214 235.012 125.161C235.007 125.137 234.995 125.119 234.989 125.096C234.971 125.042 234.953 124.989 234.935 124.93C234.923 124.9 234.918 124.87 234.912 124.835C234.9 124.775 234.882 124.716 234.87 124.657C234.864 124.615 234.852 124.58 234.846 124.538C234.834 124.473 234.823 124.407 234.817 124.336C234.811 124.307 234.811 124.277 234.805 124.247C234.823 124.241 234.846 124.241 234.864 124.241C235.048 124.212 235.232 124.2 235.422 124.194C235.44 124.194 235.463 124.194 235.481 124.194C235.671 124.194 235.855 124.212 236.039 124.241C236.056 124.247 236.08 124.247 236.098 124.247C236.092 124.277 236.092 124.307 236.086 124.336C236.074 124.407 236.068 124.473 236.057 124.538C236.051 124.58 236.039 124.615 236.033 124.657C236.021 124.716 236.009 124.781 235.991 124.835C235.985 124.864 235.973 124.894 235.968 124.93C235.95 124.989 235.932 125.042 235.914 125.096C235.908 125.119 235.896 125.137 235.89 125.161C235.873 125.214 235.849 125.268 235.831 125.309C235.825 125.327 235.813 125.339 235.807 125.357C235.784 125.398 235.76 125.446 235.736 125.481C235.73 125.493 235.718 125.505 235.712 125.517C235.689 125.546 235.665 125.582 235.641 125.606C235.629 125.618 235.618 125.624 235.6 125.635C235.582 125.653 235.564 125.671 235.54 125.677C235.511 125.695 235.475 125.701 235.445 125.701C235.416 125.701 235.392 125.695 235.362 125.677ZM237.184 122.426C237.16 122.444 237.136 122.462 237.106 122.48C237.047 122.515 236.976 122.551 236.905 122.586C236.881 122.598 236.851 122.61 236.828 122.622C236.751 122.658 236.668 122.687 236.584 122.711C236.549 122.723 236.513 122.729 236.478 122.741C236.43 122.752 236.389 122.764 236.341 122.776C236.335 122.747 236.329 122.717 236.329 122.687C236.318 122.598 236.306 122.515 236.288 122.432C236.276 122.379 236.27 122.331 236.258 122.284C236.24 122.207 236.223 122.135 236.205 122.07C236.193 122.023 236.181 121.981 236.163 121.94C236.14 121.874 236.116 121.815 236.092 121.756C236.074 121.72 236.062 121.679 236.045 121.649C236.015 121.59 235.985 121.536 235.95 121.483C235.938 121.465 235.926 121.441 235.914 121.424C236.466 121.548 236.958 121.886 237.267 122.361C237.243 122.385 237.219 122.402 237.184 122.426ZM234.989 121.418C234.977 121.435 234.965 121.459 234.953 121.477C234.923 121.53 234.888 121.578 234.858 121.637C234.84 121.673 234.829 121.708 234.811 121.744C234.787 121.803 234.763 121.863 234.74 121.928C234.728 121.969 234.71 122.017 234.698 122.058C234.68 122.13 234.662 122.195 234.645 122.272C234.633 122.319 234.621 122.373 234.615 122.42C234.597 122.503 234.585 122.586 234.573 122.669C234.568 122.699 234.562 122.729 234.562 122.764C234.514 122.752 234.467 122.741 234.425 122.729C234.39 122.717 234.354 122.711 234.318 122.699C234.229 122.669 234.152 122.64 234.069 122.604C234.046 122.592 234.022 122.586 233.998 122.574C233.927 122.539 233.856 122.503 233.79 122.462C233.767 122.444 233.743 122.426 233.713 122.408C233.684 122.385 233.654 122.361 233.624 122.343C233.945 121.88 234.437 121.542 234.989 121.418ZM233.725 124.645C233.749 124.627 233.773 124.609 233.796 124.597C233.862 124.556 233.939 124.514 234.016 124.479C234.028 124.473 234.04 124.467 234.057 124.461C234.14 124.425 234.229 124.39 234.324 124.36C234.354 124.348 234.39 124.342 234.425 124.33C234.473 124.319 234.52 124.307 234.568 124.295C234.573 124.324 234.579 124.354 234.579 124.384C234.591 124.473 234.603 124.556 234.621 124.639C234.633 124.692 234.639 124.74 234.651 124.787C234.668 124.864 234.686 124.935 234.704 125.001C234.716 125.048 234.728 125.09 234.745 125.131C234.769 125.196 234.793 125.256 234.817 125.315C234.834 125.351 234.846 125.392 234.864 125.422C234.894 125.481 234.923 125.535 234.959 125.588C234.971 125.606 234.983 125.63 234.995 125.647C234.443 125.523 233.951 125.185 233.642 124.71C233.666 124.692 233.696 124.669 233.725 124.645ZM235.92 125.653C235.932 125.635 235.944 125.612 235.956 125.594C235.985 125.541 236.021 125.493 236.051 125.434C236.068 125.398 236.08 125.363 236.098 125.327C236.122 125.268 236.145 125.208 236.169 125.143C236.181 125.102 236.199 125.054 236.211 125.013C236.229 124.941 236.246 124.876 236.264 124.799C236.276 124.752 236.288 124.698 236.294 124.651C236.312 124.568 236.323 124.485 236.335 124.402C236.341 124.372 236.347 124.342 236.347 124.307C236.395 124.319 236.442 124.33 236.49 124.342C236.525 124.354 236.561 124.36 236.59 124.372C236.679 124.402 236.768 124.431 236.851 124.473C236.869 124.479 236.887 124.491 236.905 124.496C236.982 124.532 237.053 124.568 237.118 124.609C237.148 124.627 237.166 124.645 237.195 124.663C237.225 124.686 237.255 124.704 237.284 124.728C236.964 125.191 236.472 125.529 235.92 125.653Z" fill="white"/>
<path d="M180.896 123.262C178.399 123.274 176.702 125.042 176.702 128.18C176.702 131.342 178.345 133.127 180.92 133.139C183.227 133.127 184.604 131.923 184.645 130.043H181.139V127.705H187.878V129.562C187.878 133.489 184.966 135.886 180.89 135.886C176.358 135.886 173.279 132.955 173.279 128.221C173.279 123.369 176.56 120.516 180.825 120.516C184.473 120.516 187.273 122.592 187.724 125.534H184.331C183.88 124.128 182.658 123.268 180.896 123.262Z" fill="white"/>
<path d="M189.131 124.461H192.322V126.401H192.459C192.892 125.025 194.019 124.295 195.383 124.295C195.716 124.295 196.143 124.336 196.433 124.396V127.125C196.119 127.03 195.484 126.958 195.027 126.958C193.533 126.958 192.429 127.919 192.435 129.29V135.673H189.131V124.461Z" fill="white"/>
<path d="M196.018 130.12C196.006 126.662 198.319 124.318 201.867 124.318C205.046 124.318 207.562 126.175 207.562 130.001V130.867H199.28C199.28 132.564 200.36 133.602 202.068 133.614C203.196 133.602 203.996 133.151 204.323 132.475H207.473C207.004 134.551 204.993 135.892 202.003 135.904C198.284 135.892 196.006 133.673 196.018 130.12ZM204.435 128.939C204.423 127.575 203.409 126.596 201.938 126.608C200.419 126.596 199.346 127.652 199.28 128.939H204.435Z" fill="white"/>
<path d="M207.998 130.12C207.986 126.662 210.3 124.318 213.847 124.318C217.027 124.318 219.542 126.175 219.542 130.001V130.867H211.261C211.261 132.564 212.34 133.602 214.049 133.614C215.176 133.602 215.977 133.151 216.303 132.475H219.453C218.984 134.551 216.973 135.892 213.984 135.904C210.264 135.892 207.986 133.673 207.998 130.12ZM216.41 128.939C216.398 127.575 215.384 126.596 213.912 126.608C212.394 126.596 211.32 127.652 211.255 128.939H216.41Z" fill="white"/>
<path d="M223.775 135.672H220.471V124.461H223.621V126.424H223.757C224.303 125.131 225.596 124.318 227.394 124.318C229.927 124.318 231.582 125.92 231.57 128.53V135.678H228.289V129.064C228.277 127.682 227.477 126.851 226.1 126.851C224.73 126.851 223.781 127.706 223.781 129.183V135.672H223.775Z" fill="white"/>
<path d="M180.315 139.061L184.153 147.763H184.355L188.193 139.061H193.484V154.021H189.332V145.218H189.195L185.512 153.921H182.967L179.307 145.159H179.17V154.021H175.018V139.061H180.315Z" fill="white"/>
<path d="M194.102 148.445C194.113 144.992 196.445 142.661 200.354 142.661C204.263 142.661 206.595 144.998 206.583 148.445C206.595 151.897 204.263 154.229 200.354 154.229C196.445 154.229 194.113 151.892 194.102 148.445ZM200.372 151.334C201.552 151.322 202.282 150.195 202.27 148.421C202.282 146.624 201.558 145.497 200.372 145.509C199.132 145.497 198.42 146.624 198.408 148.421C198.42 150.201 199.132 151.322 200.372 151.334Z" fill="white"/>
<path d="M207.219 139.149H211.413V144.797H211.478C211.935 143.699 213.044 142.721 214.871 142.721C217.28 142.721 219.599 144.435 219.599 148.451C219.599 152.295 217.434 154.17 214.83 154.164C213.109 154.176 211.964 153.303 211.478 152.194H211.365V154.021H207.219V139.149ZM213.323 151.192C214.563 151.18 215.286 150.142 215.275 148.439C215.286 146.754 214.563 145.716 213.323 145.728C212.059 145.716 211.312 146.743 211.306 148.439C211.312 150.124 212.071 151.18 213.323 151.192Z" fill="white"/>
<path d="M220.785 143.937H224.979V154.021H220.785V143.937Z" fill="white"/>
<path d="M230.424 154.027H226.23V139.149H230.424V154.027Z" fill="white"/>
<path d="M231.68 143.937H235.874V154.021H231.68V143.937Z" fill="white"/>
<path d="M244.969 145.685H242.863V150.449C242.863 150.971 243.142 151.179 243.73 151.208C244.032 151.22 244.649 151.19 245.13 151.149V154.044C244.744 154.115 244.074 154.18 243.13 154.186C240.212 154.174 238.64 153.16 238.669 150.84V145.685H237.115V142.874H238.669V140.204H242.863V142.874H244.969V145.685Z" fill="white"/>
<path d="M247.325 158.156V155.261C247.888 155.303 248.434 155.303 248.903 155.303C249.502 155.303 249.935 155.244 250.166 154.71L250.255 154.502L246.02 142.875H250.392L252.408 150.658H252.539L254.603 142.875H258.999L254.562 154.994C253.909 156.833 252.497 158.21 249.389 158.221C248.6 158.204 247.87 158.192 247.325 158.156Z" fill="white"/>
<path d="M224.949 139.149H220.803V142.418H224.949V139.149Z" fill="white"/>
<path d="M235.852 139.149H231.705V142.418H235.852V139.149Z" fill="white"/>
</svg>
