<svg width="17" height="23" viewBox="0 0 17 23" fill="none" xmlns="http://www.w3.org/2000/svg">
<g opacity="0.9">
<path d="M4.7162 22.9636C6.81444 22.9636 8.5154 21.2627 8.5154 19.1644V15.3652H4.7162C2.61795 15.3652 0.916992 17.0662 0.916992 19.1644C0.916992 21.2627 2.61795 22.9636 4.7162 22.9636Z" fill="black"/>
<path opacity="0.4" d="M0.916992 11.5653C0.916992 9.46707 2.61795 7.76611 4.7162 7.76611H8.5154V15.3645H4.7162C2.61795 15.3645 0.916992 13.6636 0.916992 11.5653Z" fill="black"/>
<path d="M0.916992 3.96717C0.916992 1.86893 2.61795 0.167969 4.7162 0.167969H8.5154V7.76638H4.7162C2.61795 7.76638 0.916992 6.06542 0.916992 3.96717Z" fill="black"/>
<path opacity="0.4" d="M8.51562 0.167969H12.3148C14.4131 0.167969 16.114 1.86893 16.114 3.96717C16.114 6.06542 14.4131 7.76638 12.3148 7.76638H8.51562V0.167969Z" fill="black"/>
<path d="M16.114 11.5653C16.114 13.6636 14.4131 15.3645 12.3148 15.3645C10.2166 15.3645 8.51562 13.6636 8.51562 11.5653C8.51562 9.46707 10.2166 7.76611 12.3148 7.76611C14.4131 7.76611 16.114 9.46707 16.114 11.5653Z" fill="black"/>
</g>
</svg>
