<svg width="25" height="23" viewBox="0 0 25 23" fill="none" xmlns="http://www.w3.org/2000/svg">
<path fill-rule="evenodd" clip-rule="evenodd" d="M12.2947 0.167969C5.75091 0.167969 0.460938 5.34092 0.460938 11.7406C0.460938 16.8561 3.85041 21.1864 8.5525 22.719C9.14038 22.8342 9.35572 22.47 9.35572 22.1636C9.35572 21.8953 9.33634 20.9757 9.33634 20.0175C6.04449 20.7074 5.35899 18.638 5.35899 18.638C4.82997 17.2968 4.04613 16.9521 4.04613 16.9521C2.9687 16.2431 4.12461 16.2431 4.12461 16.2431C5.31975 16.3198 5.94687 17.431 5.94687 17.431C7.00468 19.1936 8.70922 18.6956 9.39496 18.389C9.49282 17.6417 9.80651 17.1244 10.1396 16.8371C7.51408 16.5688 4.75173 15.5725 4.75173 11.1273C4.75173 9.86278 5.22165 8.82819 5.96625 8.02356C5.84877 7.73623 5.43723 6.5481 6.08397 4.95788C6.08397 4.95788 7.08316 4.65127 9.3361 6.14578C10.3007 5.89246 11.2954 5.7636 12.2947 5.76251C13.2938 5.76251 14.3124 5.89677 15.253 6.14578C17.5061 4.65127 18.5053 4.95788 18.5053 4.95788C19.1521 6.5481 18.7403 7.73623 18.6228 8.02356C19.387 8.82819 19.8376 9.86278 19.8376 11.1273C19.8376 15.5725 17.0752 16.5495 14.4301 16.8371C14.8613 17.2011 15.2333 17.8907 15.2333 18.9829C15.2333 20.5348 15.214 21.7803 15.214 22.1633C15.214 22.47 15.4295 22.8342 16.0172 22.7192C20.7193 21.1861 24.1087 16.8561 24.1087 11.7406C24.1281 5.34092 18.8188 0.167969 12.2947 0.167969Z" fill="black"/>
</svg>
